<svg width="16" height="12" viewBox="0 0 16 12" fill="none" xmlns="http://www.w3.org/2000/svg">
<path d="M3.90425 6.84076L6.533 9.46951C6.757 9.69351 6.86583 9.95876 6.8595 10.2653C6.85317 10.5718 6.74433 10.8369 6.533 11.0608C6.30917 11.2848 6.04083 11.3999 5.728 11.4063C5.415 11.4126 5.14658 11.3038 4.92275 11.08L0.34175 6.50501C0.113917 6.27701 0 6.00976 0 5.70326C0 5.39676 0.113917 5.12951 0.34175 4.90151L4.92275 0.326511C5.14658 0.102678 5.415 -0.00607193 5.728 0.000261405C6.04083 0.00659474 6.30917 0.121762 6.533 0.345762C6.74433 0.569595 6.85317 0.834762 6.8595 1.14126C6.86583 1.44776 6.757 1.71301 6.533 1.93701L3.90425 4.56576H14.7375C15.0567 4.56576 15.326 4.67551 15.5455 4.89501C15.7652 5.11468 15.875 5.38409 15.875 5.70326C15.875 6.02243 15.7652 6.29184 15.5455 6.51151C15.326 6.73101 15.0567 6.84076 14.7375 6.84076H3.90425Z" fill="white"/>
</svg>
