<svg width="19" height="13" viewBox="0 0 19 13" fill="none" xmlns="http://www.w3.org/2000/svg">
<path d="M1 10C0.716667 10 0.479167 9.90417 0.2875 9.7125C0.0958333 9.52083 0 9.28333 0 9C0 8.71667 0.0958333 8.47917 0.2875 8.2875C0.479167 8.09583 0.716667 8 1 8H7C7.28333 8 7.52083 8.09583 7.7125 8.2875C7.90417 8.47917 8 8.71667 8 9C8 9.28333 7.90417 9.52083 7.7125 9.7125C7.52083 9.90417 7.28333 10 7 10H1ZM1 6C0.716667 6 0.479167 5.90417 0.2875 5.7125C0.0958333 5.52083 0 5.28333 0 5C0 4.71667 0.0958333 4.47917 0.2875 4.2875C0.479167 4.09583 0.716667 4 1 4H11C11.2833 4 11.5208 4.09583 11.7125 4.2875C11.9042 4.47917 12 4.71667 12 5C12 5.28333 11.9042 5.52083 11.7125 5.7125C11.5208 5.90417 11.2833 6 11 6H1ZM1 2C0.716667 2 0.479167 1.90417 0.2875 1.7125C0.0958333 1.52083 0 1.28333 0 1C0 0.716667 0.0958333 0.479167 0.2875 0.2875C0.479167 0.0958333 0.716667 0 1 0H11C11.2833 0 11.5208 0.0958333 11.7125 0.2875C11.9042 0.479167 12 0.716667 12 1C12 1.28333 11.9042 1.52083 11.7125 1.7125C11.5208 1.90417 11.2833 2 11 2H1ZM13.35 12.575C13.2167 12.575 13.0917 12.5542 12.975 12.5125C12.8583 12.4708 12.75 12.4 12.65 12.3L10.5 10.15C10.3167 9.96667 10.2208 9.7375 10.2125 9.4625C10.2042 9.1875 10.3 8.95 10.5 8.75C10.6833 8.56667 10.9125 8.47083 11.1875 8.4625C11.4625 8.45417 11.7 8.54167 11.9 8.725L13.35 10.15L16.875 6.625C17.075 6.425 17.3125 6.32917 17.5875 6.3375C17.8625 6.34583 18.1 6.45 18.3 6.65C18.4833 6.85 18.5792 7.08333 18.5875 7.35C18.5958 7.61667 18.5 7.85 18.3 8.05L14.05 12.3C13.95 12.4 13.8417 12.4708 13.725 12.5125C13.6083 12.5542 13.4833 12.575 13.35 12.575Z" fill="white"/>
</svg>
