<svg width="36" height="36" viewBox="0 0 36 36" fill="none" xmlns="http://www.w3.org/2000/svg">
<mask id="mask0_26_69" style="mask-type:alpha" maskUnits="userSpaceOnUse" x="0" y="0" width="36" height="36">
<rect width="36" height="36" fill="#D9D9D9"/>
</mask>
<g mask="url(#mask0_26_69)">
<path d="M18 31.5C16.1365 31.5 14.3836 31.1448 12.7414 30.4343C11.0991 29.7235 9.67025 28.7605 8.45475 27.5452C7.2395 26.3298 6.2765 24.9009 5.56575 23.2586C4.85525 21.6164 4.5 19.8635 4.5 18C4.5 15.5922 5.08512 13.36 6.25537 11.3032C7.42562 9.2465 9.04525 7.6095 11.1143 6.39225C11.1585 6.6365 11.199 6.88225 11.2358 7.1295C11.2723 7.3765 11.3299 7.65188 11.4086 7.95563C9.70488 9.07488 8.3775 10.5168 7.4265 12.2812C6.4755 14.0457 6 15.952 6 18C6 21.35 7.1625 24.1875 9.4875 26.5125C11.8125 28.8375 14.65 30 18 30C21.35 30 24.1875 28.8375 26.5125 26.5125C28.8375 24.1875 30 21.35 30 18C30 15.952 29.5198 14.0395 28.5593 12.2625C27.5985 10.4855 26.2537 9.03738 24.525 7.91813C24.6038 7.63363 24.6663 7.37263 24.7125 7.13513C24.7588 6.89763 24.8069 6.65 24.8569 6.39225C26.9261 7.6095 28.5506 9.24512 29.7304 11.2991C30.9101 13.3529 31.5 15.5865 31.5 18C31.5 19.8635 31.1448 21.6164 30.4343 23.2586C29.7235 24.9009 28.7605 26.3298 27.5452 27.5452C26.3298 28.7605 24.9009 29.7235 23.2586 30.4343C21.6164 31.1448 19.8635 31.5 18 31.5ZM18 25.5C15.923 25.5 14.1537 24.7693 12.6922 23.3078C11.2307 21.8463 10.5 20.077 10.5 18C10.5 16.9538 10.7034 15.9615 11.1101 15.0233C11.5169 14.0848 12.0962 13.2674 12.8482 12.5711C12.9347 12.8116 13.0193 13.0554 13.1018 13.3024C13.1845 13.5496 13.2836 13.8338 13.3991 14.1548C12.9451 14.6913 12.5985 15.2903 12.3592 15.9518C12.1197 16.6135 12 17.2962 12 18C12 19.65 12.5875 21.0625 13.7625 22.2375C14.9375 23.4125 16.35 24 18 24C19.65 24 21.0625 23.4125 22.2375 22.2375C23.4125 21.0625 24 19.65 24 18C24 17.277 23.8755 16.5943 23.6265 15.9518C23.3775 15.3095 23.026 14.7105 22.572 14.1548C22.6567 13.9203 22.689 13.84 22.6688 13.914C22.6485 13.988 22.797 13.5308 23.1143 12.5423C23.8855 13.2385 24.476 14.0606 24.8857 15.0086C25.2952 15.9566 25.5 16.9538 25.5 18C25.5 20.077 24.7692 21.8463 23.3078 23.3078C21.8463 24.7693 20.077 25.5 18 25.5ZM17.7233 12C17.5328 12 17.362 11.9448 17.211 11.8343C17.06 11.7235 16.9538 11.5759 16.8923 11.3914L15.3634 6.45862C15.2269 5.88562 15.1322 5.39863 15.0795 4.99763C15.0265 4.59663 15 4.18075 15 3.75C15 2.9115 15.2904 2.20187 15.8711 1.62112C16.4519 1.04037 17.1615 0.75 18 0.75C18.8385 0.75 19.5481 1.04037 20.1289 1.62112C20.7096 2.20187 21 2.9115 21 3.75C21 4.18075 20.9735 4.59663 20.9205 4.99763C20.8678 5.39863 20.7731 5.88562 20.6366 6.45862L19.1078 11.3914C19.0463 11.5759 18.94 11.7235 18.789 11.8343C18.638 11.9448 18.4673 12 18.2768 12H17.7233ZM18 20.25C17.3673 20.25 16.8341 20.0331 16.4006 19.5994C15.9669 19.1659 15.75 18.6327 15.75 18C15.75 17.3673 15.9669 16.8341 16.4006 16.4006C16.8341 15.9669 17.3673 15.75 18 15.75C18.6327 15.75 19.1659 15.9669 19.5994 16.4006C20.0331 16.8341 20.25 17.3673 20.25 18C20.25 18.6327 20.0331 19.1659 19.5994 19.5994C19.1659 20.0331 18.6327 20.25 18 20.25Z" fill="#754BF3"/>
</g>
</svg>
