<svg width="14" height="10" viewBox="0 0 14 10" fill="none" xmlns="http://www.w3.org/2000/svg">
<path d="M4.83337 6.73333L11.225 0.341664C11.4236 0.143053 11.6764 0.0437469 11.9834 0.0437469C12.2903 0.0437469 12.5431 0.143053 12.7417 0.341664C12.9403 0.540275 13.0396 0.793053 13.0396 1.1C13.0396 1.40694 12.9403 1.65972 12.7417 1.85833L5.5917 9.00833C5.37503 9.225 5.12225 9.33333 4.83337 9.33333C4.54448 9.33333 4.2917 9.225 4.07503 9.00833L1.25837 6.19166C1.05975 5.99305 0.960449 5.74027 0.960449 5.43333C0.960449 5.12639 1.05975 4.87361 1.25837 4.675C1.45698 4.47639 1.70975 4.37708 2.0167 4.37708C2.32364 4.37708 2.57642 4.47639 2.77503 4.675L4.83337 6.73333Z" fill="#94D073"/>
</svg>
