<svg width="14" height="14" viewBox="0 0 14 14" fill="none" xmlns="http://www.w3.org/2000/svg">
<path d="M2.64719 11.1134C3.28469 10.6547 3.96112 10.2921 4.6765 10.0253C5.39187 9.75844 6.16638 9.625 7 9.625C7.83362 9.625 8.60812 9.75844 9.3235 10.0253C10.0389 10.2921 10.7153 10.6547 11.3528 11.1134C11.8481 10.6009 12.2464 9.99563 12.5478 9.29763C12.8493 8.5995 13 7.83362 13 7C13 5.3375 12.4156 3.92188 11.2469 2.75313C10.0781 1.58438 8.6625 1 7 1C5.3375 1 3.92188 1.58438 2.75313 2.75313C1.58438 3.92188 1 5.3375 1 7C1 7.83362 1.15075 8.5995 1.45225 9.29763C1.75362 9.99563 2.15194 10.6009 2.64719 11.1134ZM7.00037 7.375C6.36837 7.375 5.83531 7.15806 5.40119 6.72419C4.96706 6.29031 4.75 5.75738 4.75 5.12538C4.75 4.49338 4.96694 3.96031 5.40081 3.52619C5.83469 3.09206 6.36763 2.875 6.99963 2.875C7.63163 2.875 8.16469 3.09194 8.59881 3.52581C9.03294 3.95969 9.25 4.49262 9.25 5.12462C9.25 5.75662 9.03306 6.28969 8.59919 6.72381C8.16531 7.15794 7.63237 7.375 7.00037 7.375ZM7 13.75C6.05863 13.75 5.17737 13.5748 4.35625 13.2243C3.53512 12.8738 2.82069 12.3947 2.21294 11.7871C1.60531 11.1793 1.12625 10.4649 0.77575 9.64375C0.42525 8.82263 0.25 7.94137 0.25 7C0.25 6.05863 0.42525 5.17737 0.77575 4.35625C1.12625 3.53512 1.60531 2.82069 2.21294 2.21294C2.82069 1.60531 3.53512 1.12625 4.35625 0.77575C5.17737 0.42525 6.05863 0.25 7 0.25C7.94137 0.25 8.82263 0.42525 9.64375 0.77575C10.4649 1.12625 11.1793 1.60531 11.7871 2.21294C12.3947 2.82069 12.8738 3.53512 13.2243 4.35625C13.5748 5.17737 13.75 6.05863 13.75 7C13.75 7.94137 13.5748 8.82263 13.2243 9.64375C12.8738 10.4649 12.3947 11.1793 11.7871 11.7871C11.1793 12.3947 10.4649 12.8738 9.64375 13.2243C8.82263 13.5748 7.94137 13.75 7 13.75ZM7 13C7.69137 13 8.37169 12.8791 9.04094 12.6372C9.71006 12.3954 10.2884 12.0644 10.7759 11.6442C10.2884 11.2528 9.72444 10.9434 9.08406 10.7161C8.44369 10.4887 7.749 10.375 7 10.375C6.251 10.375 5.55387 10.4863 4.90862 10.7089C4.2635 10.9316 3.702 11.2433 3.22412 11.6442C3.71162 12.0644 4.28994 12.3954 4.95906 12.6372C5.62831 12.8791 6.30863 13 7 13ZM7 6.625C7.42112 6.625 7.77644 6.48031 8.06594 6.19094C8.35531 5.90144 8.5 5.54612 8.5 5.125C8.5 4.70388 8.35531 4.34856 8.06594 4.05906C7.77644 3.76969 7.42112 3.625 7 3.625C6.57888 3.625 6.22356 3.76969 5.93406 4.05906C5.64469 4.34856 5.5 4.70388 5.5 5.125C5.5 5.54612 5.64469 5.90144 5.93406 6.19094C6.22356 6.48031 6.57888 6.625 7 6.625Z" fill="#FC8D19"/>
</svg>
