<svg width="32" height="32" viewBox="0 0 32 32" fill="none" xmlns="http://www.w3.org/2000/svg">
<circle cx="16" cy="16" r="16" fill="#FC8D19"/>
<mask id="mask0_428_338" style="mask-type:alpha" maskUnits="userSpaceOnUse" x="4" y="4" width="24" height="24">
<rect x="4" y="4" width="24" height="24" fill="#D9D9D9"/>
</mask>
<g mask="url(#mask0_428_338)">
<path d="M14.7998 16L18.6998 19.9C18.8831 20.0833 18.9748 20.3167 18.9748 20.6C18.9748 20.8833 18.8831 21.1167 18.6998 21.3C18.5165 21.4833 18.2831 21.575 17.9998 21.575C17.7165 21.575 17.4831 21.4833 17.2998 21.3L12.6998 16.7C12.5998 16.6 12.529 16.4917 12.4873 16.375C12.4456 16.2583 12.4248 16.1333 12.4248 16C12.4248 15.8667 12.4456 15.7417 12.4873 15.625C12.529 15.5083 12.5998 15.4 12.6998 15.3L17.2998 10.7C17.4831 10.5167 17.7165 10.425 17.9998 10.425C18.2831 10.425 18.5165 10.5167 18.6998 10.7C18.8831 10.8833 18.9748 11.1167 18.9748 11.4C18.9748 11.6833 18.8831 11.9167 18.6998 12.1L14.7998 16Z" fill="white"/>
</g>
</svg>
