<svg width="28" height="28" viewBox="0 0 28 28" fill="none" xmlns="http://www.w3.org/2000/svg">
<mask id="mask0_306_31" style="mask-type:alpha" maskUnits="userSpaceOnUse" x="0" y="0" width="28" height="28">
<rect width="27.3443" height="27.3443" fill="#D9D9D9"/>
</mask>
<g mask="url(#mask0_306_31)">
<path d="M9.24634 19.3688C8.72187 19.3688 8.28398 19.1932 7.93268 18.8419C7.58138 18.4906 7.40573 18.0527 7.40573 17.5282V5.25864C7.40573 4.73416 7.58138 4.29627 7.93268 3.94498C8.28398 3.59368 8.72187 3.41803 9.24634 3.41803H21.5159C22.0404 3.41803 22.4783 3.59368 22.8296 3.94498C23.1809 4.29627 23.3566 4.73416 23.3566 5.25864V17.5282C23.3566 18.0527 23.1809 18.4906 22.8296 18.8419C22.4783 19.1932 22.0404 19.3688 21.5159 19.3688H9.24634ZM9.24634 18.2295H21.5159C21.6914 18.2295 21.8521 18.1565 21.9982 18.0105C22.1442 17.8644 22.2172 17.7037 22.2172 17.5282V8.01927H16.0385C15.774 8.01927 15.5545 7.93202 15.38 7.75751C15.2055 7.58281 15.1182 7.36329 15.1182 7.09897V4.55737H9.24634C9.07089 4.55737 8.91014 4.63039 8.76412 4.77641C8.61809 4.92244 8.54508 5.08318 8.54508 5.25864V17.5282C8.54508 17.7037 8.61809 17.8644 8.76412 18.0105C8.91014 18.1565 9.07089 18.2295 9.24634 18.2295ZM5.82831 22.7869C5.30383 22.7869 4.86595 22.6112 4.51465 22.2599C4.16335 21.9086 3.9877 21.4708 3.9877 20.9466V8.107C3.9877 7.94483 4.0421 7.80935 4.15091 7.70054C4.25972 7.59173 4.39521 7.53733 4.55737 7.53733C4.71954 7.53733 4.85503 7.59173 4.96383 7.70054C5.07264 7.80935 5.12705 7.94483 5.12705 8.107V20.9466C5.12705 21.1218 5.20006 21.2825 5.34608 21.4285C5.49211 21.5745 5.65285 21.6475 5.82831 21.6475H18.6676C18.8297 21.6475 18.9652 21.7019 19.074 21.8107C19.1829 21.9196 19.2373 22.055 19.2373 22.2172C19.2373 22.3794 19.1829 22.5149 19.074 22.6237C18.9652 22.7325 18.8297 22.7869 18.6676 22.7869H5.82831Z" fill="#FC8D19"/>
</g>
</svg>
