<svg width="24" height="24" viewBox="0 0 24 24" fill="none" xmlns="http://www.w3.org/2000/svg">
<mask id="mask0_431_506" style="mask-type:alpha" maskUnits="userSpaceOnUse" x="0" y="0" width="24" height="24">
<rect width="24" height="24" fill="#D9D9D9"/>
</mask>
<g mask="url(#mask0_431_506)">
<path d="M10.8214 21.5C10.3162 21.5 9.83863 21.3936 9.38863 21.1807C8.93863 20.9679 8.56238 20.6622 8.25988 20.2635L3.49438 14.1C3.39305 13.9757 3.34755 13.8333 3.35788 13.673C3.36805 13.5128 3.42705 13.3789 3.53488 13.2713C3.78488 13.0046 4.08388 12.8443 4.43188 12.7905C4.77988 12.7365 5.1058 12.8025 5.40963 12.9885L7.84638 14.2963V6.38475C7.84638 6.17225 7.9183 5.99408 8.06213 5.85025C8.2058 5.70658 8.38396 5.63475 8.59663 5.63475C8.8093 5.63475 8.98996 5.70658 9.13863 5.85025C9.2873 5.99408 9.36163 6.17225 9.36163 6.38475V15.3842C9.36163 15.7292 9.21163 15.988 8.91163 16.1605C8.61163 16.333 8.31096 16.3353 8.00963 16.1673L6.35963 15.3095L9.47888 19.375C9.64305 19.5813 9.84305 19.7371 10.0789 19.8423C10.3149 19.9474 10.5624 20 10.8214 20H15.7404C16.3674 20 16.9008 19.7818 17.3406 19.3453C17.7803 18.9086 18.0001 18.3768 18.0001 17.75V13.9808C18.0001 13.6374 17.884 13.3497 17.6519 13.1175C17.4195 12.8853 17.1318 12.7692 16.7886 12.7692H12.4964C12.2839 12.7692 12.1057 12.6973 11.9619 12.5535C11.8182 12.4097 11.7464 12.2315 11.7464 12.019C11.7464 11.8063 11.8182 11.6283 11.9619 11.4848C12.1057 11.3411 12.2839 11.2692 12.4964 11.2692H16.7886C17.5418 11.2692 18.182 11.5328 18.7091 12.06C19.2365 12.5873 19.5001 13.2276 19.5001 13.9808V17.7492C19.5001 18.7856 19.132 19.6698 18.3956 20.402C17.6595 21.134 16.7744 21.5 15.7404 21.5H10.8214ZM11.8501 9.0095C11.6373 9.0095 11.4591 8.93767 11.3156 8.794C11.172 8.65033 11.1001 8.47225 11.1001 8.25975C11.1001 8.21992 11.1322 8.09492 11.1964 7.88475C11.3297 7.65142 11.4297 7.41392 11.4964 7.17225C11.563 6.93058 11.5964 6.66808 11.5964 6.38475C11.5964 5.55142 11.3047 4.84308 10.7214 4.25975C10.138 3.67642 9.42971 3.38475 8.59638 3.38475C7.76305 3.38475 7.05471 3.67642 6.47138 4.25975C5.88805 4.84308 5.59638 5.55142 5.59638 6.38475C5.59638 6.66808 5.62971 6.93058 5.69638 7.17225C5.76305 7.41392 5.86305 7.65142 5.99638 7.88475C6.03471 7.94725 6.0603 8.00975 6.07313 8.07225C6.08596 8.13475 6.09238 8.19733 6.09238 8.26C6.09238 8.4725 6.0233 8.65058 5.88513 8.79425C5.74696 8.93775 5.57105 9.0095 5.35738 9.0095C5.21921 9.0095 5.0913 8.97233 4.97363 8.898C4.8558 8.82367 4.76596 8.73075 4.70413 8.61925C4.50663 8.28458 4.35596 7.9295 4.25213 7.554C4.1483 7.17833 4.09638 6.78767 4.09638 6.382C4.09638 5.135 4.53421 4.07375 5.40988 3.19825C6.28538 2.32258 7.34755 1.88475 8.59638 1.88475C9.84505 1.88475 10.9072 2.32258 11.7829 3.19825C12.6584 4.07375 13.0961 5.135 13.0961 6.382C13.0961 6.78767 13.0442 7.17833 12.9404 7.554C12.8365 7.9295 12.686 8.28458 12.4886 8.61925C12.426 8.73075 12.3383 8.82367 12.2256 8.898C12.113 8.97233 11.9878 9.0095 11.8501 9.0095Z" fill="#808080"/>
</g>
</svg>
