<svg width="20" height="19" viewBox="0 0 20 19" fill="none" xmlns="http://www.w3.org/2000/svg">
<path d="M10.7502 9.69625V5.75C10.7502 5.53717 10.6784 5.359 10.5347 5.2155C10.3912 5.07183 10.2131 5 10.0002 5C9.78741 5 9.60924 5.07183 9.46574 5.2155C9.32208 5.359 9.25024 5.53717 9.25024 5.75V9.927C9.25024 10.0475 9.27208 10.1622 9.31574 10.2712C9.35924 10.3801 9.42782 10.4813 9.52149 10.575L12.4465 13.5C12.5848 13.6385 12.7588 13.7093 12.9685 13.7125C13.1782 13.7157 13.3554 13.6448 13.5002 13.5C13.6451 13.3552 13.7175 13.1795 13.7175 12.973C13.7175 12.7667 13.6451 12.5911 13.5002 12.4462L10.7502 9.69625ZM10.0002 18.5C8.82074 18.5 7.71566 18.2769 6.68499 17.8307C5.65416 17.3846 4.75541 16.7782 3.98874 16.0115C3.22208 15.2448 2.61566 14.3461 2.16949 13.3152C1.72333 12.2846 1.50024 11.1795 1.50024 10C1.50024 8.8205 1.72333 7.71542 2.16949 6.68475C2.61566 5.65392 3.22208 4.75516 3.98874 3.9885C4.75541 3.22183 5.65416 2.61542 6.68499 2.16925C7.71566 1.72308 8.82074 1.5 10.0002 1.5C11.1797 1.5 12.2848 1.72308 13.3155 2.16925C14.3463 2.61542 15.2451 3.22183 16.0117 3.9885C16.7784 4.75516 17.3848 5.65392 17.831 6.68475C18.2772 7.71542 18.5002 8.8205 18.5002 10C18.5002 11.1795 18.2772 12.2846 17.831 13.3152C17.3848 14.3461 16.7784 15.2448 16.0117 16.0115C15.2451 16.7782 14.3463 17.3846 13.3155 17.8307C12.2848 18.2769 11.1797 18.5 10.0002 18.5ZM0.415742 4.28075C0.270742 4.13591 0.198242 3.96025 0.198242 3.75375C0.198242 3.54742 0.270742 3.37183 0.415742 3.227L3.22724 0.415498C3.36574 0.276998 3.53974 0.206165 3.74924 0.202998C3.95891 0.199665 4.13616 0.270498 4.28099 0.415498C4.42583 0.560332 4.49824 0.735915 4.49824 0.942249C4.49824 1.14875 4.42583 1.32442 4.28099 1.46925L1.46949 4.28075C1.33099 4.41925 1.15699 4.49008 0.947492 4.49325C0.737826 4.49641 0.560576 4.42558 0.415742 4.28075ZM19.5847 4.28075C19.4399 4.42558 19.2643 4.498 19.058 4.498C18.8515 4.498 18.6758 4.42558 18.531 4.28075L15.7195 1.46925C15.581 1.33075 15.5102 1.15675 15.507 0.947249C15.5038 0.737582 15.5747 0.560332 15.7195 0.415498C15.8643 0.270498 16.04 0.197998 16.2465 0.197998C16.4528 0.197998 16.6284 0.270498 16.7732 0.415498L19.5847 3.227C19.7232 3.3655 19.7941 3.5395 19.7972 3.749C19.8006 3.95867 19.7297 4.13591 19.5847 4.28075ZM10.0002 17C11.9439 17 13.5965 16.3192 14.958 14.9577C16.3195 13.5962 17.0002 11.9437 17.0002 10C17.0002 8.05633 16.3195 6.40375 14.958 5.04225C13.5965 3.68075 11.9439 3 10.0002 3C8.05658 3 6.40399 3.68075 5.04249 5.04225C3.68099 6.40375 3.00024 8.05633 3.00024 10C3.00024 11.9437 3.68099 13.5962 5.04249 14.9577C6.40399 16.3192 8.05658 17 10.0002 17Z" fill="#FC8D19"/>
</svg>
