<svg width="133" height="132" viewBox="0 0 133 132" fill="none" xmlns="http://www.w3.org/2000/svg">
<g clip-path="url(#clip0_86_272)">
<circle cx="66.5" cy="66" r="66" fill="#E6FDFD"/>
<g filter="url(#filter0_d_86_272)">
<rect x="18.5" y="30" width="95" height="63" rx="12" fill="#FAFFFF"/>
</g>
<g filter="url(#filter1_d_86_272)">
<rect x="-8.5" y="102" width="95" height="63" rx="12" fill="#FAFFFF"/>
</g>
<g filter="url(#filter2_d_86_272)">
<rect x="95.5" y="102" width="49" height="63" rx="12" fill="#FAFFFF"/>
</g>
<circle opacity="0.2" cx="66.5" cy="30" r="21" fill="url(#paint0_linear_86_272)"/>
<circle cx="66.5001" cy="30" r="14.4737" fill="url(#paint1_linear_86_272)"/>
<path d="M67.1487 22.2501L74.2934 34.6252C74.5005 34.9839 74.3776 35.4426 74.0189 35.6496C73.9049 35.7155 73.7756 35.7502 73.6439 35.7502H59.3545C58.9403 35.7502 58.6045 35.4144 58.6045 35.0002C58.6045 34.8685 58.6391 34.7392 58.705 34.6252L65.8497 22.2501C66.0568 21.8914 66.5154 21.7685 66.8742 21.9756C66.9882 22.0414 67.0829 22.1361 67.1487 22.2501ZM60.6535 34.2502H72.3449L66.4992 24.1251L60.6535 34.2502ZM65.7492 32.0002H67.2492V33.5002H65.7492V32.0002ZM65.7492 26.7501H67.2492V30.5002H65.7492V26.7501Z" fill="white"/>
<rect x="33.5" y="58" width="65" height="6" rx="3" fill="#9CF8F7"/>
<rect x="48.5" y="73" width="35" height="6" rx="3" fill="#9CF8F7"/>
<rect x="21.5" y="115" width="35" height="6" rx="3" fill="#9CF8F7"/>
</g>
<defs>
<filter id="filter0_d_86_272" x="-41.5" y="-10" width="215" height="183" filterUnits="userSpaceOnUse" color-interpolation-filters="sRGB">
<feFlood flood-opacity="0" result="BackgroundImageFix"/>
<feColorMatrix in="SourceAlpha" type="matrix" values="0 0 0 0 0 0 0 0 0 0 0 0 0 0 0 0 0 0 127 0" result="hardAlpha"/>
<feOffset dy="20"/>
<feGaussianBlur stdDeviation="30"/>
<feComposite in2="hardAlpha" operator="out"/>
<feColorMatrix type="matrix" values="0 0 0 0 0.552941 0 0 0 0 0.607843 0 0 0 0 0.666667 0 0 0 0.15 0"/>
<feBlend mode="normal" in2="BackgroundImageFix" result="effect1_dropShadow_86_272"/>
<feBlend mode="normal" in="SourceGraphic" in2="effect1_dropShadow_86_272" result="shape"/>
</filter>
<filter id="filter1_d_86_272" x="-68.5" y="62" width="215" height="183" filterUnits="userSpaceOnUse" color-interpolation-filters="sRGB">
<feFlood flood-opacity="0" result="BackgroundImageFix"/>
<feColorMatrix in="SourceAlpha" type="matrix" values="0 0 0 0 0 0 0 0 0 0 0 0 0 0 0 0 0 0 127 0" result="hardAlpha"/>
<feOffset dy="20"/>
<feGaussianBlur stdDeviation="30"/>
<feComposite in2="hardAlpha" operator="out"/>
<feColorMatrix type="matrix" values="0 0 0 0 0.552941 0 0 0 0 0.607843 0 0 0 0 0.666667 0 0 0 0.15 0"/>
<feBlend mode="normal" in2="BackgroundImageFix" result="effect1_dropShadow_86_272"/>
<feBlend mode="normal" in="SourceGraphic" in2="effect1_dropShadow_86_272" result="shape"/>
</filter>
<filter id="filter2_d_86_272" x="35.5" y="62" width="169" height="183" filterUnits="userSpaceOnUse" color-interpolation-filters="sRGB">
<feFlood flood-opacity="0" result="BackgroundImageFix"/>
<feColorMatrix in="SourceAlpha" type="matrix" values="0 0 0 0 0 0 0 0 0 0 0 0 0 0 0 0 0 0 127 0" result="hardAlpha"/>
<feOffset dy="20"/>
<feGaussianBlur stdDeviation="30"/>
<feComposite in2="hardAlpha" operator="out"/>
<feColorMatrix type="matrix" values="0 0 0 0 0.552941 0 0 0 0 0.607843 0 0 0 0 0.666667 0 0 0 0.15 0"/>
<feBlend mode="normal" in2="BackgroundImageFix" result="effect1_dropShadow_86_272"/>
<feBlend mode="normal" in="SourceGraphic" in2="effect1_dropShadow_86_272" result="shape"/>
</filter>
<linearGradient id="paint0_linear_86_272" x1="66.5" y1="9" x2="66.5" y2="51" gradientUnits="userSpaceOnUse">
<stop stop-color="#E79F35"/>
<stop offset="1" stop-color="#FFC977" stop-opacity="0.1"/>
</linearGradient>
<linearGradient id="paint1_linear_86_272" x1="66.5001" y1="15.5263" x2="66.5001" y2="44.4737" gradientUnits="userSpaceOnUse">
<stop stop-color="#E79F35"/>
<stop offset="1" stop-color="#FFC977"/>
</linearGradient>
<clipPath id="clip0_86_272">
<rect x="0.5" width="132" height="132" rx="66" fill="white"/>
</clipPath>
</defs>
</svg>
