<svg width="24" height="24" viewBox="0 0 24 24" fill="none" xmlns="http://www.w3.org/2000/svg">
<mask id="mask0_681_130" style="mask-type:alpha" maskUnits="userSpaceOnUse" x="0" y="0" width="24" height="24">
<rect x="0.599976" y="0.600006" width="22.8" height="22.8" fill="#D9D9D9"/>
</mask>
<g mask="url(#mask0_681_130)">
<path d="M10.5275 12.2503L11.8902 13.6131C12.028 13.7629 12.2041 13.8378 12.4184 13.8378C12.6327 13.8378 12.8147 13.7629 12.9647 13.6131L16.275 10.3211V12.0238C16.275 12.1468 16.3203 12.2527 16.411 12.3415C16.5018 12.4305 16.6147 12.475 16.75 12.475C16.873 12.475 16.9829 12.4296 17.0796 12.3389C17.1765 12.2482 17.225 12.1352 17.225 12V9.44237C17.225 9.234 17.1491 9.05406 16.9974 8.90253C16.8459 8.75085 16.666 8.67501 16.4576 8.67501H13.8762C13.7532 8.67501 13.6473 8.72345 13.5584 8.82035C13.4695 8.9171 13.425 9.02698 13.425 9.15001C13.425 9.28522 13.4703 9.39819 13.5611 9.48892C13.6518 9.57964 13.7647 9.62501 13.9 9.62501H15.5789L12.4275 12.8184L11.0647 11.4557C10.9147 11.3021 10.7327 11.2253 10.5184 11.2253C10.3041 11.2253 10.128 11.3021 9.99024 11.4557L7.2939 14.1339C7.20128 14.235 7.15496 14.35 7.15496 14.479C7.15496 14.6082 7.20128 14.7172 7.2939 14.8061C7.39492 14.9109 7.50995 14.9633 7.63899 14.9633C7.76819 14.9633 7.8772 14.9109 7.96603 14.8061L10.5275 12.2503ZM5.93469 19.6C5.49737 19.6 5.13226 19.4535 4.83934 19.1606C4.54642 18.8677 4.39996 18.5026 4.39996 18.0653V5.93473C4.39996 5.49741 4.54642 5.1323 4.83934 4.83938C5.13226 4.54646 5.49737 4.40001 5.93469 4.40001H18.0652C18.5026 4.40001 18.8677 4.54646 19.1606 4.83938C19.4535 5.1323 19.6 5.49741 19.6 5.93473V18.0653C19.6 18.5026 19.4535 18.8677 19.1606 19.1606C18.8677 19.4535 18.5026 19.6 18.0652 19.6H5.93469ZM5.93469 18.65H18.0652C18.2115 18.65 18.3456 18.5891 18.4673 18.4674C18.5891 18.3456 18.65 18.2116 18.65 18.0653V5.93473C18.65 5.78843 18.5891 5.6544 18.4673 5.53264C18.3456 5.41088 18.2115 5.35001 18.0652 5.35001H5.93469C5.78839 5.35001 5.65436 5.41088 5.5326 5.53264C5.41084 5.6544 5.34996 5.78843 5.34996 5.93473V18.0653C5.34996 18.2116 5.41084 18.3456 5.5326 18.4674C5.65436 18.5891 5.78839 18.65 5.93469 18.65Z" fill="#FC8D19"/>
</g>
</svg>
