<svg width="20" height="18" viewBox="0 0 20 18" fill="none" xmlns="http://www.w3.org/2000/svg">
<path d="M1 18C0.716667 18 0.479167 17.9042 0.2875 17.7125C0.0958333 17.5208 0 17.2833 0 17C0 16.7167 0.0958333 16.4792 0.2875 16.2875C0.479167 16.0958 0.716667 16 1 16H19C19.2833 16 19.5208 16.0958 19.7125 16.2875C19.9042 16.4792 20 16.7167 20 17C20 17.2833 19.9042 17.5208 19.7125 17.7125C19.5208 17.9042 19.2833 18 19 18H1ZM2.5 15C2.08333 15 1.72917 14.8542 1.4375 14.5625C1.14583 14.2708 1 13.9167 1 13.5V9.5C1 9.08333 1.14583 8.72917 1.4375 8.4375C1.72917 8.14583 2.08333 8 2.5 8C2.91667 8 3.27083 8.14583 3.5625 8.4375C3.85417 8.72917 4 9.08333 4 9.5V13.5C4 13.9167 3.85417 14.2708 3.5625 14.5625C3.27083 14.8542 2.91667 15 2.5 15ZM7.5 15C7.08333 15 6.72917 14.8542 6.4375 14.5625C6.14583 14.2708 6 13.9167 6 13.5V4.5C6 4.08333 6.14583 3.72917 6.4375 3.4375C6.72917 3.14583 7.08333 3 7.5 3C7.91667 3 8.27083 3.14583 8.5625 3.4375C8.85417 3.72917 9 4.08333 9 4.5V13.5C9 13.9167 8.85417 14.2708 8.5625 14.5625C8.27083 14.8542 7.91667 15 7.5 15ZM12.5 15C12.0833 15 11.7292 14.8542 11.4375 14.5625C11.1458 14.2708 11 13.9167 11 13.5V7.5C11 7.08333 11.1458 6.72917 11.4375 6.4375C11.7292 6.14583 12.0833 6 12.5 6C12.9167 6 13.2708 6.14583 13.5625 6.4375C13.8542 6.72917 14 7.08333 14 7.5V13.5C14 13.9167 13.8542 14.2708 13.5625 14.5625C13.2708 14.8542 12.9167 15 12.5 15ZM17.5 15C17.0833 15 16.7292 14.8542 16.4375 14.5625C16.1458 14.2708 16 13.9167 16 13.5V1.5C16 1.08333 16.1458 0.729167 16.4375 0.4375C16.7292 0.145833 17.0833 0 17.5 0C17.9167 0 18.2708 0.145833 18.5625 0.4375C18.8542 0.729167 19 1.08333 19 1.5V13.5C19 13.9167 18.8542 14.2708 18.5625 14.5625C18.2708 14.8542 17.9167 15 17.5 15Z" fill="#1C1B1F"/>
</svg>
