<svg width="31" height="31" viewBox="0 0 31 31" fill="none" xmlns="http://www.w3.org/2000/svg">
<mask id="mask0_306_55" style="mask-type:alpha" maskUnits="userSpaceOnUse" x="0" y="0" width="31" height="31">
<rect width="31" height="31" fill="#D9D9D9"/>
</mask>
<g mask="url(#mask0_306_55)">
<path d="M20.771 21.3151L25.8036 16.2824C25.9293 16.1565 26.0817 16.0907 26.2606 16.0851C26.4394 16.0793 26.5918 16.1476 26.7175 16.2899C26.8385 16.4218 26.899 16.5757 26.899 16.7516C26.899 16.9273 26.8385 17.0781 26.7175 17.204L21.5337 22.3956C21.3249 22.6042 21.0814 22.7085 20.8033 22.7085C20.5251 22.7085 20.2817 22.6042 20.0731 22.3956L17.5693 19.8917C17.4483 19.7707 17.392 19.6225 17.4004 19.447C17.4085 19.2716 17.4731 19.1233 17.5941 19.0024C17.7149 18.8816 17.8644 18.8212 18.0426 18.8212C18.2211 18.8212 18.3679 18.8816 18.4831 19.0024L20.771 21.3151ZM20.771 11.9754L25.8036 6.94271C25.9293 6.81677 26.0817 6.7509 26.2606 6.74508C26.4394 6.73949 26.5918 6.80784 26.7175 6.95013C26.8385 7.0821 26.899 7.23592 26.899 7.41158C26.899 7.58747 26.8385 7.73837 26.7175 7.86431L21.5337 13.0558C21.3249 13.2644 21.0814 13.3687 20.8033 13.3687C20.5251 13.3687 20.2817 13.2644 20.0731 13.0558L17.5693 10.5519C17.4483 10.431 17.392 10.2827 17.4004 10.1073C17.4085 9.93184 17.4731 9.78362 17.5941 9.66263C17.7149 9.54186 17.8644 9.48148 18.0426 9.48148C18.2211 9.48148 18.3679 9.54186 18.4831 9.66263L20.771 11.9754ZM4.52083 20.8159C4.33785 20.8159 4.18446 20.7539 4.06068 20.6299C3.93689 20.5059 3.875 20.3523 3.875 20.1691C3.875 19.9858 3.93689 19.8326 4.06068 19.7092C4.18446 19.5859 4.33785 19.5242 4.52083 19.5242H13.5625C13.7455 19.5242 13.8989 19.5861 14.0227 19.7099C14.1464 19.8339 14.2083 19.9875 14.2083 20.1707C14.2083 20.3539 14.1464 20.5071 14.0227 20.6305C13.8989 20.7541 13.7455 20.8159 13.5625 20.8159H4.52083ZM4.52083 11.4758C4.33785 11.4758 4.18446 11.4139 4.06068 11.2901C3.93689 11.1661 3.875 11.0125 3.875 10.8293C3.875 10.6461 3.93689 10.4929 4.06068 10.3695C4.18446 10.2459 4.33785 10.1841 4.52083 10.1841H13.5625C13.7455 10.1841 13.8989 10.2461 14.0227 10.3701C14.1464 10.4941 14.2083 10.6477 14.2083 10.8309C14.2083 11.0141 14.1464 11.1674 14.0227 11.2908C13.8989 11.4141 13.7455 11.4758 13.5625 11.4758H4.52083Z" fill="#FC8D19"/>
</g>
</svg>
