<svg width="36" height="36" viewBox="0 0 36 36" fill="none" xmlns="http://www.w3.org/2000/svg">
<mask id="mask0_78_13" style="mask-type:alpha" maskUnits="userSpaceOnUse" x="0" y="0" width="36" height="36">
<rect width="36" height="36" fill="#D9D9D9"/>
</mask>
<g mask="url(#mask0_78_13)">
<path d="M18 20.1L22.35 24.45C22.625 24.725 22.975 24.8625 23.4 24.8625C23.825 24.8625 24.175 24.725 24.45 24.45C24.725 24.175 24.8625 23.825 24.8625 23.4C24.8625 22.975 24.725 22.625 24.45 22.35L20.1 18L24.45 13.65C24.725 13.375 24.8625 13.025 24.8625 12.6C24.8625 12.175 24.725 11.825 24.45 11.55C24.175 11.275 23.825 11.1375 23.4 11.1375C22.975 11.1375 22.625 11.275 22.35 11.55L18 15.9L13.65 11.55C13.375 11.275 13.025 11.1375 12.6 11.1375C12.175 11.1375 11.825 11.275 11.55 11.55C11.275 11.825 11.1375 12.175 11.1375 12.6C11.1375 13.025 11.275 13.375 11.55 13.65L15.9 18L11.55 22.35C11.275 22.625 11.1375 22.975 11.1375 23.4C11.1375 23.825 11.275 24.175 11.55 24.45C11.825 24.725 12.175 24.8625 12.6 24.8625C13.025 24.8625 13.375 24.725 13.65 24.45L18 20.1ZM18 33C15.925 33 13.975 32.6062 12.15 31.8187C10.325 31.0312 8.7375 29.9625 7.3875 28.6125C6.0375 27.2625 4.96875 25.675 4.18125 23.85C3.39375 22.025 3 20.075 3 18C3 15.925 3.39375 13.975 4.18125 12.15C4.96875 10.325 6.0375 8.7375 7.3875 7.3875C8.7375 6.0375 10.325 4.96875 12.15 4.18125C13.975 3.39375 15.925 3 18 3C20.075 3 22.025 3.39375 23.85 4.18125C25.675 4.96875 27.2625 6.0375 28.6125 7.3875C29.9625 8.7375 31.0312 10.325 31.8187 12.15C32.6062 13.975 33 15.925 33 18C33 20.075 32.6062 22.025 31.8187 23.85C31.0312 25.675 29.9625 27.2625 28.6125 28.6125C27.2625 29.9625 25.675 31.0312 23.85 31.8187C22.025 32.6062 20.075 33 18 33ZM18 30C21.35 30 24.1875 28.8375 26.5125 26.5125C28.8375 24.1875 30 21.35 30 18C30 14.65 28.8375 11.8125 26.5125 9.4875C24.1875 7.1625 21.35 6 18 6C14.65 6 11.8125 7.1625 9.4875 9.4875C7.1625 11.8125 6 14.65 6 18C6 21.35 7.1625 24.1875 9.4875 26.5125C11.8125 28.8375 14.65 30 18 30Z" fill="white"/>
</g>
</svg>
