<svg width="24" height="24" viewBox="0 0 24 24" fill="none" xmlns="http://www.w3.org/2000/svg">
<path d="M10.1669 15.1096L2.2976 22.9789C2.12832 23.148 1.91759 23.2306 1.66541 23.2267C1.41322 23.2228 1.20249 23.1363 1.03321 22.967C0.863936 22.7977 0.779297 22.5843 0.779297 22.3268C0.779297 22.0694 0.863936 21.8573 1.03321 21.6907L8.89058 13.8333H3.75021C3.49049 13.8333 3.27283 13.7454 3.09724 13.5696C2.92145 13.3938 2.83355 13.1761 2.83355 12.9163C2.83355 12.6564 2.92145 12.4388 3.09724 12.2634C3.27283 12.0878 3.49049 12 3.75021 12H10.8956C11.2085 12 11.4709 12.1058 11.6827 12.3175C11.8944 12.5293 12.0002 12.7917 12.0002 13.1046V20.25C12.0002 20.5097 11.9123 20.7274 11.7365 20.903C11.5607 21.0788 11.343 21.1667 11.0832 21.1667C10.8233 21.1667 10.6057 21.0788 10.4303 20.903C10.2547 20.7274 10.1669 20.5097 10.1669 20.25V15.1096ZM15.1099 10.1667H20.2502C20.5099 10.1667 20.7276 10.2545 20.9032 10.4303C21.079 10.6061 21.1669 10.8239 21.1669 11.0836C21.1669 11.3435 21.079 11.5612 20.9032 11.7366C20.7276 11.9122 20.5099 12 20.2502 12H13.1048C12.7919 12 12.5295 11.8942 12.3177 11.6825C12.106 11.4707 12.0002 11.2083 12.0002 10.8954V3.74998C12.0002 3.49026 12.0881 3.2726 12.2639 3.09701C12.4397 2.92122 12.6575 2.83332 12.9172 2.83332C13.1771 2.83332 13.3948 2.92122 13.5702 3.09701C13.7458 3.2726 13.8335 3.49026 13.8335 3.74998V8.89034L21.7028 1.02107C21.8695 0.851993 22.0815 0.767456 22.339 0.767456C22.5965 0.767456 22.8099 0.851993 22.9791 1.02107C23.1482 1.19034 23.2327 1.40372 23.2327 1.66121C23.2327 1.91869 23.1482 2.13074 22.9791 2.29737L15.1099 10.1667Z" fill="white"/>
</svg>
