<svg width="16" height="16" viewBox="0 0 16 16" fill="none" xmlns="http://www.w3.org/2000/svg">
<path d="M1.67008 15.0833C1.45661 15.0833 1.27772 15.0111 1.13341 14.8666C0.98897 14.7223 0.916748 14.5434 0.916748 14.33V9.45829C0.916748 9.28121 0.976679 9.13274 1.09654 9.01288C1.2164 8.89315 1.36487 8.83329 1.54196 8.83329C1.71918 8.83329 1.86758 8.89315 1.98716 9.01288C2.10689 9.13274 2.16675 9.28121 2.16675 9.45829V12.9631L12.9632 2.16663H9.45842C9.28133 2.16663 9.13286 2.1067 9.013 1.98683C8.89328 1.86697 8.83342 1.7185 8.83342 1.54142C8.83342 1.3642 8.89328 1.21579 9.013 1.09621C9.13286 0.976487 9.28133 0.916626 9.45842 0.916626H14.3301C14.5436 0.916626 14.7224 0.988849 14.8667 1.13329C15.0112 1.2776 15.0834 1.45649 15.0834 1.66996V6.54163C15.0834 6.71871 15.0235 6.86718 14.9036 6.98704C14.7838 7.10677 14.6353 7.16663 14.4582 7.16663C14.281 7.16663 14.1326 7.10677 14.013 6.98704C13.8933 6.86718 13.8334 6.71871 13.8334 6.54163V3.03683L3.03696 13.8333H6.54175C6.71883 13.8333 6.8673 13.8932 6.98716 14.0131C7.10689 14.1329 7.16675 14.2814 7.16675 14.4585C7.16675 14.6357 7.10689 14.7841 6.98716 14.9037C6.8673 15.0234 6.71883 15.0833 6.54175 15.0833H1.67008Z" fill="white"/>
</svg>
