<svg width="23" height="23" viewBox="0 0 23 23" fill="none" xmlns="http://www.w3.org/2000/svg">
<path d="M1 1C1 0.723858 0.776142 0.5 0.5 0.5C0.223858 0.5 0 0.723858 0 1H1ZM0.5 18.5H0V19H0.5V18.5ZM22.8536 18.8536C23.0488 18.6583 23.0488 18.3417 22.8536 18.1464L19.6716 14.9645C19.4763 14.7692 19.1597 14.7692 18.9645 14.9645C18.7692 15.1597 18.7692 15.4763 18.9645 15.6716L21.7929 18.5L18.9645 21.3284C18.7692 21.5237 18.7692 21.8403 18.9645 22.0355C19.1597 22.2308 19.4763 22.2308 19.6716 22.0355L22.8536 18.8536ZM0 1V18.5H1V1H0ZM0.5 19H22.5V18H0.5V19Z" fill="#FC8D19"/>
</svg>
