<svg width="20" height="20" viewBox="0 0 20 20" fill="none" xmlns="http://www.w3.org/2000/svg">
<path d="M2.55138 19.3333C2.01432 19.3333 1.56593 19.1535 1.20621 18.7938C0.846487 18.434 0.666626 17.9856 0.666626 17.4486V2.55142C0.666626 2.01437 0.846487 1.56598 1.20621 1.20626C1.56593 0.846533 2.01432 0.666672 2.55138 0.666672H17.4485C17.9856 0.666672 18.434 0.846533 18.7937 1.20626C19.1534 1.56598 19.3333 2.01437 19.3333 2.55142V17.4486C19.3333 17.9856 19.1534 18.434 18.7937 18.7938C18.434 19.1535 17.9856 19.3333 17.4485 19.3333H2.55138ZM2.99996 11.5009L7.00688 7.49401C7.19549 7.30539 7.4154 7.21109 7.66663 7.21109C7.91785 7.21109 8.13776 7.30539 8.32638 7.49401L12.3333 11.5009L16.3402 7.49401C16.5288 7.30539 16.7487 7.21109 17 7.21109C17.2512 7.21109 17.4711 7.30539 17.6597 7.49401L18.1666 8.00092V2.55142C18.1666 2.342 18.0993 2.16992 17.9648 2.03517C17.83 1.90062 17.658 1.83334 17.4485 1.83334H2.55138C2.34196 1.83334 2.16988 1.90062 2.03513 2.03517C1.90057 2.16992 1.83329 2.342 1.83329 2.55142V10.3343L2.99996 11.5009ZM2.55138 18.1667H17.4485C17.658 18.1667 17.83 18.0994 17.9648 17.9648C18.0993 17.8301 18.1666 17.658 18.1666 17.4486V9.65905L17 8.49238L12.993 12.4993C12.8044 12.6877 12.5845 12.7819 12.3333 12.7819C12.0821 12.7819 11.8622 12.6877 11.6735 12.4993L7.66663 8.49238L3.65971 12.4993C3.4711 12.6877 3.25118 12.7819 2.99996 12.7819C2.74874 12.7819 2.52882 12.6877 2.34021 12.4993L1.83329 11.9924V17.4486C1.83329 17.658 1.90057 17.8301 2.03513 17.9648C2.16988 18.0994 2.34196 18.1667 2.55138 18.1667ZM1.83329 18.1667V9.65905V10.8257V1.83334V18.1667Z" fill="#1C1B1F"/>
</svg>
