<svg width="12" height="14" viewBox="0 0 12 14" fill="none" xmlns="http://www.w3.org/2000/svg">
<path d="M3 8.41334C2.84525 8.41334 2.71038 8.3559 2.59538 8.24103C2.4805 8.12615 2.42306 7.99134 2.42306 7.83659C2.42306 7.68172 2.4805 7.54684 2.59538 7.43197C2.71038 7.31709 2.84525 7.25965 3 7.25965C3.15475 7.25965 3.28962 7.31709 3.40462 7.43197C3.5195 7.54684 3.57694 7.68172 3.57694 7.83659C3.57694 7.99134 3.5195 8.12615 3.40462 8.24103C3.28962 8.3559 3.15475 8.41334 3 8.41334ZM6 8.41334C5.84525 8.41334 5.71038 8.3559 5.59538 8.24103C5.4805 8.12615 5.42306 7.99134 5.42306 7.83659C5.42306 7.68172 5.4805 7.54684 5.59538 7.43197C5.71038 7.31709 5.84525 7.25965 6 7.25965C6.15475 7.25965 6.28963 7.31709 6.40462 7.43197C6.5195 7.54684 6.57694 7.68172 6.57694 7.83659C6.57694 7.99134 6.5195 8.12615 6.40462 8.24103C6.28963 8.3559 6.15475 8.41334 6 8.41334ZM9 8.41334C8.84525 8.41334 8.71037 8.3559 8.59538 8.24103C8.4805 8.12615 8.42306 7.99134 8.42306 7.83659C8.42306 7.68172 8.4805 7.54684 8.59538 7.43197C8.71037 7.31709 8.84525 7.25965 9 7.25965C9.15475 7.25965 9.28963 7.31709 9.40462 7.43197C9.5195 7.54684 9.57694 7.68172 9.57694 7.83659C9.57694 7.99134 9.5195 8.12615 9.40462 8.24103C9.28963 8.3559 9.15475 8.41334 9 8.41334ZM1.21162 13.75C0.866375 13.75 0.578125 13.6343 0.346875 13.4031C0.115625 13.1718 0 12.8836 0 12.5383V2.96159C0 2.61634 0.115625 2.32809 0.346875 2.09684C0.578125 1.86559 0.866375 1.74997 1.21162 1.74997H2.53838V0.480779C2.53838 0.364404 2.57663 0.267967 2.65313 0.191467C2.72963 0.115092 2.826 0.0769043 2.94225 0.0769043C3.05863 0.0769043 3.15506 0.115092 3.23156 0.191467C3.30794 0.267967 3.34612 0.364404 3.34612 0.480779V1.74997H8.71163V0.451904C8.71163 0.345154 8.74744 0.255966 8.81906 0.184341C8.89069 0.112716 8.97988 0.0769043 9.08663 0.0769043C9.19325 0.0769043 9.28238 0.112716 9.354 0.184341C9.42575 0.255966 9.46163 0.345154 9.46163 0.451904V1.74997H10.7884C11.1336 1.74997 11.4219 1.86559 11.6531 2.09684C11.8844 2.32809 12 2.61634 12 2.96159V12.5383C12 12.8836 11.8844 13.1718 11.6531 13.4031C11.4219 13.6343 11.1336 13.75 10.7884 13.75H1.21162ZM1.21162 13H10.7884C10.9039 13 11.0097 12.9519 11.1058 12.8558C11.2019 12.7597 11.25 12.6538 11.25 12.5383V5.96159H0.75V12.5383C0.75 12.6538 0.798063 12.7597 0.894188 12.8558C0.990313 12.9519 1.09612 13 1.21162 13ZM0.75 5.2114H11.25V2.96159C11.25 2.84609 11.2019 2.74028 11.1058 2.64415C11.0097 2.54803 10.9039 2.49997 10.7884 2.49997H1.21162C1.09612 2.49997 0.990313 2.54803 0.894188 2.64415C0.798063 2.74028 0.75 2.84609 0.75 2.96159V5.2114Z" fill="#FC8D19"/>
</svg>
