<svg width="12" height="14" viewBox="0 0 12 14" fill="none" xmlns="http://www.w3.org/2000/svg">
<path d="M1.5 10.2726C1.66537 10.1274 1.849 10.0168 2.05088 9.94094C2.25288 9.86494 2.47312 9.82694 2.71162 9.82694H3.28838V1H3C2.59137 1 2.23919 1.14781 1.94344 1.44344C1.64781 1.73919 1.5 2.09137 1.5 2.5V10.2726ZM4.03837 9.82694H10.5V1.46162C10.5 1.327 10.4568 1.21637 10.3703 1.12975C10.2836 1.04325 10.173 1 10.0384 1H4.03837V9.82694ZM2.71162 13.75C2.16925 13.75 1.70675 13.5586 1.32412 13.1759C0.941375 12.7933 0.75 12.3308 0.75 11.7884V2.5C0.75 1.87112 0.967813 1.33894 1.40344 0.903437C1.83894 0.467812 2.37112 0.25 3 0.25H10.0384C10.374 0.25 10.6599 0.368 10.896 0.604C11.132 0.840125 11.25 1.126 11.25 1.46162V10.2784C11.25 10.3592 11.2214 10.4306 11.1641 10.4926C11.107 10.5546 11.0299 10.6019 10.9328 10.6347C10.6711 10.7029 10.4567 10.8423 10.2894 11.0528C10.1221 11.2634 10.0384 11.5086 10.0384 11.7884C10.0384 12.0586 10.1196 12.2998 10.2821 12.5118C10.4446 12.7238 10.6567 12.8673 10.9183 12.9423C11.0259 12.9789 11.1081 13.0316 11.1649 13.1003C11.2216 13.1691 11.25 13.2448 11.25 13.3274V13.3707C11.25 13.4774 11.2142 13.5673 11.1426 13.6403C11.0709 13.7134 10.9817 13.75 10.875 13.75H2.71162ZM2.71162 13H9.73406C9.59181 12.8346 9.482 12.6517 9.40462 12.4512C9.32713 12.2507 9.28838 12.0298 9.28838 11.7884C9.28838 11.5596 9.32638 11.3419 9.40238 11.1351C9.47838 10.9284 9.58894 10.7423 9.73406 10.5769H2.71162C2.36738 10.5769 2.07938 10.6959 1.84763 10.9339C1.61588 11.1719 1.5 11.4567 1.5 11.7884C1.5 12.1326 1.61588 12.4206 1.84763 12.6524C2.07938 12.8841 2.36738 13 2.71162 13Z" fill="#FC8D19"/>
</svg>
