<svg width="12" height="12" viewBox="0 0 12 12" fill="none" xmlns="http://www.w3.org/2000/svg">
<path d="M3.08756 9.40388C3.25131 9.40388 3.38825 9.3485 3.49837 9.23775C3.60837 9.127 3.66337 8.98975 3.66337 8.826C3.66337 8.66225 3.608 8.52531 3.49725 8.41519C3.3865 8.30506 3.24925 8.25 3.0855 8.25C2.92175 8.25 2.78481 8.30537 2.67469 8.41612C2.56469 8.52687 2.50969 8.66413 2.50969 8.82788C2.50969 8.99162 2.56506 9.12856 2.67581 9.23869C2.78656 9.34881 2.92381 9.40388 3.08756 9.40388ZM3.08756 6.57694C3.25131 6.57694 3.38825 6.52156 3.49837 6.41081C3.60837 6.30006 3.66337 6.16281 3.66337 5.99906C3.66337 5.83531 3.608 5.69838 3.49725 5.58825C3.3865 5.47813 3.24925 5.42306 3.0855 5.42306C2.92175 5.42306 2.78481 5.47844 2.67469 5.58919C2.56469 5.69994 2.50969 5.83719 2.50969 6.00094C2.50969 6.16469 2.56506 6.30162 2.67581 6.41175C2.78656 6.52187 2.92381 6.57694 3.08756 6.57694ZM3.08756 3.75C3.25131 3.75 3.38825 3.69463 3.49837 3.58388C3.60837 3.47313 3.66337 3.33587 3.66337 3.17212C3.66337 3.00837 3.608 2.87144 3.49725 2.76131C3.3865 2.65119 3.24925 2.59613 3.0855 2.59613C2.92175 2.59613 2.78481 2.6515 2.67469 2.76225C2.56469 2.873 2.50969 3.01025 2.50969 3.174C2.50969 3.33775 2.56506 3.47469 2.67581 3.58481C2.78656 3.69494 2.92381 3.75 3.08756 3.75ZM5.76919 9.20194H9.05775C9.164 9.20194 9.25306 9.16594 9.32494 9.09394C9.39681 9.02194 9.43275 8.93275 9.43275 8.82638C9.43275 8.72 9.39681 8.631 9.32494 8.55938C9.25306 8.48775 9.164 8.45194 9.05775 8.45194H5.76919C5.66294 8.45194 5.57387 8.48794 5.502 8.55994C5.43012 8.63181 5.39419 8.721 5.39419 8.8275C5.39419 8.93388 5.43012 9.02287 5.502 9.0945C5.57387 9.16613 5.66294 9.20194 5.76919 9.20194ZM5.76919 6.375H9.05775C9.164 6.375 9.25306 6.339 9.32494 6.267C9.39681 6.195 9.43275 6.10581 9.43275 5.99944C9.43275 5.89306 9.39681 5.80406 9.32494 5.73244C9.25306 5.66081 9.164 5.625 9.05775 5.625H5.76919C5.66294 5.625 5.57387 5.661 5.502 5.733C5.43012 5.805 5.39419 5.89419 5.39419 6.00056C5.39419 6.10694 5.43012 6.19594 5.502 6.26756C5.57387 6.33919 5.66294 6.375 5.76919 6.375ZM5.76919 3.54806H9.05775C9.164 3.54806 9.25306 3.51206 9.32494 3.44006C9.39681 3.36819 9.43275 3.279 9.43275 3.1725C9.43275 3.06613 9.39681 2.97713 9.32494 2.9055C9.25306 2.83388 9.164 2.79806 9.05775 2.79806H5.76919C5.66294 2.79806 5.57387 2.83406 5.502 2.90606C5.43012 2.97806 5.39419 3.06725 5.39419 3.17362C5.39419 3.28 5.43012 3.369 5.502 3.44063C5.57387 3.51225 5.66294 3.54806 5.76919 3.54806ZM1.21162 12C0.866375 12 0.578125 11.8844 0.346875 11.6531C0.115625 11.4219 0 11.1336 0 10.7884V1.21162C0 0.866375 0.115625 0.578125 0.346875 0.346875C0.578125 0.115625 0.866375 0 1.21162 0H10.7884C11.1336 0 11.4219 0.115625 11.6531 0.346875C11.8844 0.578125 12 0.866375 12 1.21162V10.7884C12 11.1336 11.8844 11.4219 11.6531 11.6531C11.4219 11.8844 11.1336 12 10.7884 12H1.21162ZM1.21162 11.25H10.7884C10.9039 11.25 11.0097 11.2019 11.1058 11.1058C11.2019 11.0097 11.25 10.9039 11.25 10.7884V1.21162C11.25 1.09612 11.2019 0.990313 11.1058 0.894188C11.0097 0.798063 10.9039 0.75 10.7884 0.75H1.21162C1.09612 0.75 0.990313 0.798063 0.894188 0.894188C0.798063 0.990313 0.75 1.09612 0.75 1.21162V10.7884C0.75 10.9039 0.798063 11.0097 0.894188 11.1058C0.990313 11.2019 1.09612 11.25 1.21162 11.25Z" fill="#FC8D19"/>
</svg>
