<svg width="26" height="33" viewBox="0 0 26 33" fill="none" xmlns="http://www.w3.org/2000/svg">
<path d="M1.75 27.4742C1.39583 27.4742 1.09903 27.3544 0.859584 27.115C0.619861 26.8753 0.5 26.5782 0.5 26.2237C0.5 25.8696 0.619861 25.5728 0.859584 25.3333C1.09903 25.0942 1.39583 24.9746 1.75 24.9746H3.51292V12.5383C3.51292 10.2969 4.20472 8.31513 5.58833 6.59291C6.97167 4.87068 8.74778 3.76916 10.9167 3.28832V2.24999C10.9167 1.67138 11.119 1.17944 11.5238 0.774157C11.9285 0.369157 12.4199 0.166656 12.9979 0.166656C13.5763 0.166656 14.0683 0.369157 14.4742 0.774157C14.8803 1.17944 15.0833 1.67138 15.0833 2.24999V3.28832C17.2522 3.76916 19.0283 4.87068 20.4117 6.59291C21.7953 8.31513 22.4871 10.2969 22.4871 12.5383V24.9746H24.25C24.6042 24.9746 24.901 25.0943 25.1404 25.3337C25.3801 25.5735 25.5 25.8705 25.5 26.225C25.5 26.5792 25.3801 26.876 25.1404 27.1154C24.901 27.3546 24.6042 27.4742 24.25 27.4742H1.75ZM12.9971 32.1537C12.1679 32.1537 11.459 31.8587 10.8704 31.2687C10.2815 30.6787 9.98708 29.9694 9.98708 29.1408H16.0129C16.0129 29.9722 15.7176 30.6822 15.1271 31.2708C14.5365 31.8594 13.8265 32.1537 12.9971 32.1537ZM6.01292 24.9746H19.9871V12.5383C19.9871 10.6089 19.305 8.96207 17.9408 7.59791C16.5764 6.23346 14.9294 5.55124 13 5.55124C11.0706 5.55124 9.42361 6.23346 8.05917 7.59791C6.695 8.96207 6.01292 10.6089 6.01292 12.5383V24.9746Z" fill="#FC8D19"/>
</svg>
