<svg width="18" height="16" viewBox="0 0 18 16" fill="none" xmlns="http://www.w3.org/2000/svg">
<path d="M14 13.4L12.1 15.3C11.9167 15.4833 11.6833 15.575 11.4 15.575C11.1167 15.575 10.8833 15.4833 10.7 15.3C10.5167 15.1167 10.425 14.8833 10.425 14.6C10.425 14.3167 10.5167 14.0833 10.7 13.9L12.6 12L10.7 10.1C10.5167 9.91667 10.425 9.68333 10.425 9.4C10.425 9.11667 10.5167 8.88333 10.7 8.7C10.8833 8.51667 11.1167 8.425 11.4 8.425C11.6833 8.425 11.9167 8.51667 12.1 8.7L14 10.6L15.9 8.7C16.0833 8.51667 16.3167 8.425 16.6 8.425C16.8833 8.425 17.1167 8.51667 17.3 8.7C17.4833 8.88333 17.575 9.11667 17.575 9.4C17.575 9.68333 17.4833 9.91667 17.3 10.1L15.4 12L17.3 13.9C17.4833 14.0833 17.575 14.3167 17.575 14.6C17.575 14.8833 17.4833 15.1167 17.3 15.3C17.1167 15.4833 16.8833 15.575 16.6 15.575C16.3167 15.575 16.0833 15.4833 15.9 15.3L14 13.4ZM1 10C0.716667 10 0.479167 9.90417 0.2875 9.7125C0.0958333 9.52083 0 9.28333 0 9C0 8.71667 0.0958333 8.47917 0.2875 8.2875C0.479167 8.09583 0.716667 8 1 8H6C6.28333 8 6.52083 8.09583 6.7125 8.2875C6.90417 8.47917 7 8.71667 7 9C7 9.28333 6.90417 9.52083 6.7125 9.7125C6.52083 9.90417 6.28333 10 6 10H1ZM1 6C0.716667 6 0.479167 5.90417 0.2875 5.7125C0.0958333 5.52083 0 5.28333 0 5C0 4.71667 0.0958333 4.47917 0.2875 4.2875C0.479167 4.09583 0.716667 4 1 4H10C10.2833 4 10.5208 4.09583 10.7125 4.2875C10.9042 4.47917 11 4.71667 11 5C11 5.28333 10.9042 5.52083 10.7125 5.7125C10.5208 5.90417 10.2833 6 10 6H1ZM1 2C0.716667 2 0.479167 1.90417 0.2875 1.7125C0.0958333 1.52083 0 1.28333 0 1C0 0.716667 0.0958333 0.479167 0.2875 0.2875C0.479167 0.0958333 0.716667 0 1 0H10C10.2833 0 10.5208 0.0958333 10.7125 0.2875C10.9042 0.479167 11 0.716667 11 1C11 1.28333 10.9042 1.52083 10.7125 1.7125C10.5208 1.90417 10.2833 2 10 2H1Z" fill="white"/>
</svg>
