<svg width="24" height="24" viewBox="0 0 24 24" fill="none" xmlns="http://www.w3.org/2000/svg">
<mask id="mask0_428_411" style="mask-type:alpha" maskUnits="userSpaceOnUse" x="0" y="0" width="24" height="24">
<rect width="24" height="24" fill="#D9D9D9"/>
</mask>
<g mask="url(#mask0_428_411)">
<path d="M16.9805 18H20.942C21.1549 18 21.3331 18.0718 21.4768 18.2155C21.6203 18.359 21.692 18.5372 21.692 18.75C21.692 18.9628 21.6203 19.141 21.4768 19.2845C21.3331 19.4282 21.1549 19.5 20.942 19.5H15.4805L16.9805 18ZM5.03052 19.5C4.91002 19.5 4.79527 19.4782 4.68627 19.4345C4.57727 19.391 4.47602 19.3224 4.38252 19.2287L2.88452 17.7308C2.53318 17.3794 2.35335 16.9525 2.34502 16.45C2.33668 15.9475 2.50818 15.5122 2.85952 15.1442L13.4363 4.16725C13.7876 3.79942 14.2119 3.61708 14.7093 3.62025C15.2068 3.62342 15.6312 3.80067 15.9825 4.152L20.515 8.68475C20.8664 9.03592 21.0436 9.46442 21.0468 9.97025C21.0499 10.4759 20.8759 10.9044 20.5248 11.2557L12.7518 19.2287C12.6581 19.3224 12.5552 19.391 12.443 19.4345C12.3309 19.4782 12.2145 19.5 12.094 19.5H5.03052ZM11.842 18L19.4708 10.1712C19.5221 10.1199 19.5478 10.0462 19.5478 9.95C19.5478 9.85383 19.5221 9.78008 19.4708 9.72875L14.9535 5.2115C14.9024 5.16033 14.8303 5.13475 14.7373 5.13475C14.6443 5.13475 14.5721 5.16358 14.5208 5.22125L3.91327 16.1787C3.86193 16.2364 3.83627 16.3117 3.83627 16.4047C3.83627 16.4978 3.86193 16.5699 3.91327 16.6212L5.29202 18H11.842Z" fill="#808080"/>
</g>
</svg>
