<svg width="24" height="24" viewBox="0 0 24 24" fill="none" xmlns="http://www.w3.org/2000/svg">
<mask id="mask0_675_49" style="mask-type:alpha" maskUnits="userSpaceOnUse" x="0" y="0" width="24" height="24">
<rect x="0.599976" y="0.600006" width="22.8" height="22.8" fill="#D9D9D9"/>
</mask>
<g mask="url(#mask0_675_49)">
<path d="M6.8847 21.5C6.44738 21.5 6.08227 21.3535 5.78935 21.0606C5.49643 20.7677 5.34998 20.4026 5.34998 19.9653V10.6847C5.34998 10.2474 5.49643 9.8823 5.78935 9.58938C6.08227 9.29646 6.44738 9.15001 6.8847 9.15001H8.41919C8.5544 9.15001 8.66738 9.19537 8.7581 9.28609C8.84883 9.37682 8.89419 9.48979 8.89419 9.62501C8.89419 9.76022 8.84883 9.87319 8.7581 9.96392C8.66738 10.0546 8.5544 10.1 8.41919 10.1H6.8847C6.7384 10.1 6.60437 10.1609 6.48261 10.2826C6.36085 10.4044 6.29998 10.5384 6.29998 10.6847V19.9653C6.29998 20.1116 6.36085 20.2456 6.48261 20.3674C6.60437 20.4891 6.7384 20.55 6.8847 20.55H17.1153C17.2615 20.55 17.3956 20.4891 17.5173 20.3674C17.6391 20.2456 17.7 20.1116 17.7 19.9653V10.6847C17.7 10.5384 17.6391 10.4044 17.5173 10.2826C17.3956 10.1609 17.2615 10.1 17.1153 10.1H15.5808C15.4455 10.1 15.3326 10.0546 15.2418 9.96392C15.1511 9.87319 15.1058 9.76022 15.1058 9.62501C15.1058 9.48979 15.1511 9.37682 15.2418 9.28609C15.3326 9.19537 15.4455 9.15001 15.5808 9.15001H17.1153C17.5526 9.15001 17.9177 9.29646 18.2106 9.58938C18.5035 9.8823 18.65 10.2474 18.65 10.6847V19.9653C18.65 20.4026 18.5035 20.7677 18.2106 21.0606C17.9177 21.3535 17.5526 21.5 17.1153 21.5H6.8847ZM11.525 4.98283L9.86604 6.64153C9.77357 6.73416 9.66456 6.78261 9.539 6.78688C9.4136 6.79116 9.29857 6.74089 9.19391 6.63607C9.09274 6.53141 9.04128 6.41939 9.03954 6.30001C9.03764 6.18062 9.0891 6.0686 9.19391 5.96394L11.4628 3.69487C11.6163 3.54128 11.7954 3.46449 12 3.46449C12.2045 3.46449 12.3836 3.54128 12.5372 3.69487L14.806 5.96394C14.895 6.05277 14.9425 6.16083 14.9485 6.28813C14.9547 6.41543 14.9072 6.53141 14.806 6.63607C14.7014 6.74089 14.5884 6.79329 14.4671 6.79329C14.346 6.79329 14.2331 6.74089 14.1285 6.63607L12.475 4.98283V14.85C12.475 14.9852 12.4296 15.0982 12.3389 15.1889C12.2482 15.2796 12.1352 15.325 12 15.325C11.8648 15.325 11.7518 15.2796 11.6611 15.1889C11.5703 15.0982 11.525 14.9852 11.525 14.85V4.98283Z" fill="white"/>
</g>
</svg>
