<svg width="21" height="18" viewBox="0 0 21 18" fill="none" xmlns="http://www.w3.org/2000/svg">
<path d="M9.00005 17.7C7.79655 17.7 6.66555 17.4717 5.60705 17.0152C4.54855 16.5588 3.6278 15.9392 2.8448 15.1565C2.0618 14.3738 1.44188 13.4536 0.985049 12.3957C0.528382 11.3377 0.300049 10.2072 0.300049 9.00425C0.300049 7.80142 0.528382 6.67033 0.985049 5.611C1.44188 4.55167 2.0618 3.63025 2.8448 2.84675C3.6278 2.06308 4.54855 1.44275 5.60705 0.985749C6.66555 0.528582 7.79655 0.299999 9.00005 0.299999C9.88338 0.299999 10.7334 0.429166 11.55 0.687499C12.3667 0.945833 13.1417 1.31667 13.875 1.8C13.975 1.86667 14.0417 1.95 14.0751 2.05C14.1084 2.15 14.0917 2.24167 14.0251 2.325C13.9584 2.40833 13.8709 2.45417 13.7626 2.4625C13.6542 2.47083 13.5584 2.44167 13.475 2.375C12.8084 1.925 12.0959 1.58333 11.3376 1.35C10.5792 1.11667 9.80005 0.999999 9.00005 0.999999C6.76672 0.999999 4.87505 1.775 3.32505 3.325C1.77505 4.875 1.00005 6.76667 1.00005 9C1.00005 11.2333 1.77505 13.125 3.32505 14.675C4.87505 16.225 6.76672 17 9.00005 17C9.55305 17 10.0955 16.9458 10.6273 16.8375C11.1591 16.7292 11.675 16.5667 12.175 16.35C12.2751 16.3167 12.3792 16.3083 12.4875 16.325C12.5959 16.3417 12.6765 16.3931 12.7295 16.4792C12.7765 16.5597 12.7851 16.6491 12.7551 16.7472C12.7251 16.8456 12.6567 16.9132 12.55 16.95C11.9834 17.2 11.4042 17.3875 10.8125 17.5125C10.2209 17.6375 9.61672 17.7 9.00005 17.7ZM16.6501 13.35H14C13.9009 13.35 13.8178 13.3163 13.7508 13.249C13.6836 13.1818 13.6501 13.0985 13.6501 12.999C13.6501 12.8997 13.6836 12.8167 13.7508 12.75C13.8178 12.6833 13.9009 12.65 14 12.65H16.6501V10C16.6501 9.90083 16.6837 9.81767 16.751 9.7505C16.8182 9.6835 16.9015 9.65 17.001 9.65C17.1004 9.65 17.1834 9.6835 17.25 9.7505C17.3167 9.81767 17.35 9.90083 17.35 10V12.65H20.0001C20.0992 12.65 20.1823 12.6837 20.2493 12.751C20.3165 12.8182 20.35 12.9015 20.35 13.001C20.35 13.1003 20.3165 13.1833 20.2493 13.25C20.1823 13.3167 20.0992 13.35 20.0001 13.35H17.35V16C17.35 16.0992 17.3164 16.1823 17.2491 16.2495C17.1819 16.3165 17.0986 16.35 16.9991 16.35C16.8997 16.35 16.8167 16.3165 16.75 16.2495C16.6834 16.1823 16.6501 16.0992 16.6501 16V13.35ZM7.55005 11.7L16.9501 2.3C17.0167 2.23333 17.0959 2.19583 17.1875 2.1875C17.2792 2.17917 17.3667 2.21667 17.4501 2.3C17.5334 2.38333 17.5751 2.46667 17.5751 2.55C17.5751 2.63333 17.5334 2.71667 17.4501 2.8L8.07505 12.175C7.92505 12.325 7.75005 12.4 7.55005 12.4C7.35005 12.4 7.17505 12.325 7.02505 12.175L4.45005 9.6C4.38338 9.53333 4.34588 9.45417 4.33755 9.3625C4.32922 9.27083 4.36672 9.18333 4.45005 9.1C4.53338 9.01667 4.61672 8.975 4.70005 8.975C4.78338 8.975 4.86672 9.01667 4.95005 9.1L7.55005 11.7Z" fill="white"/>
</svg>
