<svg width="24" height="24" viewBox="0 0 24 24" fill="none" xmlns="http://www.w3.org/2000/svg">
<mask id="mask0_678_79" style="mask-type:alpha" maskUnits="userSpaceOnUse" x="0" y="0" width="24" height="24">
<rect x="0.599976" y="0.600006" width="22.8" height="22.8" fill="#D9D9D9"/>
</mask>
<g mask="url(#mask0_678_79)">
<path d="M10.2097 18.175C10.0751 18.175 9.96229 18.1294 9.87125 18.0382C9.78021 17.947 9.73469 17.834 9.73469 17.6993C9.73469 17.5645 9.78021 17.4518 9.87125 17.3611C9.96229 17.2704 10.0751 17.225 10.2097 17.225H19.125C19.2595 17.225 19.3724 17.2706 19.4634 17.3618C19.5544 17.453 19.6 17.566 19.6 17.7007C19.6 17.8355 19.5544 17.9482 19.4634 18.0389C19.3724 18.1296 19.2595 18.175 19.125 18.175H10.2097ZM10.2097 12.475C10.0751 12.475 9.96229 12.4294 9.87125 12.3382C9.78021 12.247 9.73469 12.134 9.73469 11.9993C9.73469 11.8645 9.78021 11.7518 9.87125 11.6611C9.96229 11.5704 10.0751 11.525 10.2097 11.525H19.125C19.2595 11.525 19.3724 11.5706 19.4634 11.6618C19.5544 11.753 19.6 11.866 19.6 12.0007C19.6 12.1355 19.5544 12.2482 19.4634 12.3389C19.3724 12.4296 19.2595 12.475 19.125 12.475H10.2097ZM10.2097 6.775C10.0751 6.775 9.96229 6.7294 9.87125 6.6382C9.78021 6.547 9.73469 6.43403 9.73469 6.29929C9.73469 6.16455 9.78021 6.05181 9.87125 5.96109C9.96229 5.87036 10.0751 5.825 10.2097 5.825H19.125C19.2595 5.825 19.3724 5.8706 19.4634 5.9618C19.5544 6.053 19.6 6.16597 19.6 6.30072C19.6 6.43546 19.5544 6.54819 19.4634 6.63892C19.3724 6.72964 19.2595 6.775 19.125 6.775H10.2097ZM5.66061 18.9607C5.31386 18.9607 5.01707 18.8372 4.77023 18.5904C4.52338 18.3434 4.39996 18.0466 4.39996 17.7C4.39996 17.3534 4.52338 17.0566 4.77023 16.8096C5.01707 16.5628 5.31386 16.4394 5.66061 16.4394C6.00721 16.4394 6.30392 16.5628 6.55076 16.8096C6.79761 17.0566 6.92103 17.3534 6.92103 17.7C6.92103 18.0466 6.79761 18.3434 6.55076 18.5904C6.30392 18.8372 6.00721 18.9607 5.66061 18.9607ZM5.66061 13.2607C5.31386 13.2607 5.01707 13.1372 4.77023 12.8904C4.52338 12.6434 4.39996 12.3466 4.39996 12C4.39996 11.6534 4.52338 11.3566 4.77023 11.1096C5.01707 10.8628 5.31386 10.7394 5.66061 10.7394C6.00721 10.7394 6.30392 10.8628 6.55076 11.1096C6.79761 11.3566 6.92103 11.6534 6.92103 12C6.92103 12.3466 6.79761 12.6434 6.55076 12.8904C6.30392 13.1372 6.00721 13.2607 5.66061 13.2607ZM5.66061 7.56065C5.31386 7.56065 5.01707 7.43723 4.77023 7.19039C4.52338 6.94339 4.39996 6.64659 4.39996 6.3C4.39996 5.95341 4.52338 5.65662 4.77023 5.40962C5.01707 5.16277 5.31386 5.03935 5.66061 5.03935C6.00721 5.03935 6.30392 5.16277 6.55076 5.40962C6.79761 5.65662 6.92103 5.95341 6.92103 6.3C6.92103 6.64659 6.79761 6.94339 6.55076 7.19039C6.30392 7.43723 6.00721 7.56065 5.66061 7.56065Z" fill="#ADB4C0"/>
</g>
</svg>
