<svg width="31" height="27" viewBox="0 0 31 27" fill="none" xmlns="http://www.w3.org/2000/svg">
<path d="M12.7737 12.1835C11.1696 12.1835 9.79638 11.6124 8.65416 10.4702C7.51166 9.32771 6.94041 7.95438 6.94041 6.35021C6.94041 4.74604 7.51166 3.37285 8.65416 2.23063C9.79638 1.08813 11.1696 0.516876 12.7737 0.516876C14.3779 0.516876 15.7511 1.08813 16.8933 2.23063C18.0358 3.37285 18.6071 4.74604 18.6071 6.35021C18.6071 7.95438 18.0358 9.32771 16.8933 10.4702C15.7511 11.6124 14.3779 12.1835 12.7737 12.1835ZM0.273743 22.344V21.1706C0.273743 20.329 0.491243 19.5667 0.926243 18.884C1.36097 18.2012 1.95763 17.6676 2.71624 17.2831C4.22041 16.5203 5.7793 15.9284 7.39291 15.5073C9.00652 15.0865 10.6592 14.876 12.3508 14.876H12.5912C12.9454 14.876 13.2422 15.0006 13.4817 15.2498C13.7211 15.4992 13.8408 15.8006 13.8408 16.154C13.8408 16.507 13.7211 16.8033 13.4817 17.0427C13.2422 17.2819 12.9454 17.4015 12.5912 17.4015H12.3508C10.8472 17.4015 9.39069 17.5826 7.98124 17.9448C6.57152 18.307 5.19888 18.8353 3.86333 19.5298C3.54305 19.7006 3.28138 19.9272 3.07833 20.2094C2.87527 20.4913 2.77374 20.8117 2.77374 21.1706V22.376H12.5912C12.9454 22.376 13.2422 22.4959 13.4817 22.7356C13.7211 22.9751 13.8408 23.272 13.8408 23.6265C13.8408 23.9809 13.7211 24.2777 13.4817 24.5169C13.2422 24.7563 12.9454 24.876 12.5912 24.876H2.80583C2.10277 24.876 1.50499 24.6298 1.01249 24.1373C0.519993 23.6445 0.273743 23.0467 0.273743 22.344ZM22.78 25.1452L22.5783 23.8981C22.1808 23.7806 21.8068 23.6269 21.4562 23.4369C21.106 23.2466 20.7726 23.0083 20.4562 22.7219L19.2162 23.1773C18.9512 23.267 18.6951 23.2615 18.4479 23.1606C18.201 23.0598 18.0083 22.8987 17.87 22.6773L17.6487 22.286C17.5076 22.0488 17.4571 21.7903 17.4971 21.5106C17.5371 21.2309 17.6667 21.0012 17.8858 20.8215L18.8829 20.0298C18.7632 19.5981 18.7033 19.1728 18.7033 18.754C18.7033 18.3353 18.7632 17.9102 18.8829 17.4785L17.9021 16.6548C17.6821 16.4795 17.5496 16.2578 17.5046 15.9898C17.4596 15.7215 17.5076 15.4688 17.6487 15.2319L17.8954 14.8152C18.0368 14.5935 18.2287 14.4323 18.4712 14.3315C18.7135 14.2309 18.9671 14.2255 19.2321 14.3152L20.4562 14.7702C20.7618 14.4838 21.0925 14.2483 21.4483 14.0635C21.8042 13.8785 22.1808 13.7273 22.5783 13.6098L22.78 12.3373C22.8314 12.0553 22.9629 11.8284 23.1746 11.6565C23.386 11.4845 23.6326 11.3985 23.9146 11.3985H24.3571C24.639 11.3985 24.8858 11.4888 25.0975 11.6694C25.3089 11.8499 25.4403 12.0812 25.4917 12.3631L25.6775 13.6098C26.075 13.7273 26.4517 13.8828 26.8075 14.0765C27.163 14.2698 27.4936 14.5181 27.7992 14.8215L28.9725 14.3665C29.2544 14.2595 29.5226 14.2567 29.7771 14.3581C30.0312 14.4598 30.2283 14.6266 30.3683 14.8585L30.6083 15.2648C30.7483 15.497 30.796 15.7515 30.7512 16.0281C30.7062 16.3048 30.5737 16.5308 30.3537 16.706L29.3729 17.5298C29.4926 17.9306 29.5525 18.3481 29.5525 18.7823C29.5525 19.2165 29.4926 19.6323 29.3729 20.0298L30.37 20.8215C30.59 20.9967 30.7197 21.221 30.7592 21.4944C30.7986 21.768 30.7479 22.0234 30.6071 22.2606L30.36 22.6773C30.2211 22.8987 30.0326 23.0598 29.7946 23.1606C29.5562 23.2615 29.3046 23.267 29.0396 23.1773L27.7992 22.7219C27.483 23.0083 27.1497 23.2466 26.7992 23.4369C26.4489 23.6269 26.075 23.7806 25.6775 23.8981L25.4917 25.1706C25.4403 25.4528 25.3089 25.6799 25.0975 25.8519C24.8858 26.0238 24.639 26.1098 24.3571 26.1098H23.9146C23.6326 26.1098 23.386 26.0195 23.1746 25.839C22.9629 25.6584 22.8314 25.4272 22.78 25.1452ZM24.1212 21.9273C24.9943 21.9273 25.7411 21.6165 26.3617 20.9948C26.9825 20.3731 27.2929 19.6258 27.2929 18.7527C27.2929 17.8797 26.9821 17.1328 26.3604 16.5123C25.7387 15.8915 24.9914 15.581 24.1183 15.581C23.2456 15.581 22.4987 15.8919 21.8779 16.5135C21.2571 17.1352 20.9467 17.8826 20.9467 18.7556C20.9467 19.6284 21.2575 20.3752 21.8792 20.996C22.5008 21.6169 23.2482 21.9273 24.1212 21.9273ZM12.7737 9.68354C13.6904 9.68354 14.4751 9.35715 15.1279 8.70438C15.7807 8.0516 16.1071 7.26688 16.1071 6.35021C16.1071 5.43354 15.7807 4.64882 15.1279 3.99604C14.4751 3.34327 13.6904 3.01688 12.7737 3.01688C11.8571 3.01688 11.0724 3.34327 10.4196 3.99604C9.7668 4.64882 9.44041 5.43354 9.44041 6.35021C9.44041 7.26688 9.7668 8.0516 10.4196 8.70438C11.0724 9.35715 11.8571 9.68354 12.7737 9.68354Z" fill="white"/>
</svg>
