<svg width="44" height="44" viewBox="0 0 44 44" fill="none" xmlns="http://www.w3.org/2000/svg">
<circle cx="22" cy="22" r="22" fill="#FC8D19"/>
<path d="M22 11L31.5 16.5V27.5L22 33L12.5 27.5V16.5L22 11ZM22 13.311L14.5 17.6531V26.3469L22 30.689L29.5 26.3469V17.6531L22 13.311ZM22 26C19.7909 26 18 24.2091 18 22C18 19.7909 19.7909 18 22 18C24.2091 18 26 19.7909 26 22C26 24.2091 24.2091 26 22 26ZM22 24C23.1046 24 24 23.1046 24 22C24 20.8954 23.1046 20 22 20C20.8954 20 20 20.8954 20 22C20 23.1046 20.8954 24 22 24Z" fill="white"/>
</svg>
