<svg width="20" height="20" viewBox="0 0 20 20" fill="none" xmlns="http://www.w3.org/2000/svg">
<path d="M8.15425 13.75C8.36675 13.75 8.54483 13.6781 8.6885 13.5343C8.832 13.3906 8.90375 13.2125 8.90375 13V7C8.90375 6.7875 8.83183 6.60942 8.688 6.46575C8.54433 6.32192 8.36617 6.25 8.1535 6.25C7.941 6.25 7.76292 6.32192 7.61925 6.46575C7.47575 6.60942 7.404 6.7875 7.404 7V13C7.404 13.2125 7.47583 13.3906 7.6195 13.5343C7.76333 13.6781 7.94158 13.75 8.15425 13.75ZM11.8465 13.75C12.059 13.75 12.2371 13.6781 12.3807 13.5343C12.5243 13.3906 12.596 13.2125 12.596 13V7C12.596 6.7875 12.5242 6.60942 12.3805 6.46575C12.2367 6.32192 12.0584 6.25 11.8458 6.25C11.6333 6.25 11.4552 6.32192 11.3115 6.46575C11.168 6.60942 11.0962 6.7875 11.0962 7V13C11.0962 13.2125 11.1682 13.3906 11.312 13.5343C11.4557 13.6781 11.6338 13.75 11.8465 13.75ZM10.0017 19.5C8.68775 19.5 7.45267 19.2507 6.2965 18.752C5.14033 18.2533 4.13467 17.5766 3.2795 16.7218C2.42433 15.8669 1.74725 14.8617 1.24825 13.706C0.749417 12.5503 0.5 11.3156 0.5 10.0017C0.5 8.68775 0.749333 7.45267 1.248 6.2965C1.74667 5.14033 2.42342 4.13467 3.27825 3.2795C4.13308 2.42433 5.13833 1.74725 6.294 1.24825C7.44967 0.749417 8.68442 0.5 9.99825 0.5C11.3123 0.5 12.5473 0.749333 13.7035 1.248C14.8597 1.74667 15.8653 2.42342 16.7205 3.27825C17.5757 4.13308 18.2528 5.13833 18.7518 6.294C19.2506 7.44967 19.5 8.68442 19.5 9.99825C19.5 11.3123 19.2507 12.5473 18.752 13.7035C18.2533 14.8597 17.5766 15.8653 16.7218 16.7205C15.8669 17.5757 14.8617 18.2528 13.706 18.7518C12.5503 19.2506 11.3156 19.5 10.0017 19.5ZM10 18C12.2333 18 14.125 17.225 15.675 15.675C17.225 14.125 18 12.2333 18 10C18 7.76667 17.225 5.875 15.675 4.325C14.125 2.775 12.2333 2 10 2C7.76667 2 5.875 2.775 4.325 4.325C2.775 5.875 2 7.76667 2 10C2 12.2333 2.775 14.125 4.325 15.675C5.875 17.225 7.76667 18 10 18Z" fill="white"/>
</svg>
