<svg width="14" height="16" viewBox="0 0 14 16" fill="none" xmlns="http://www.w3.org/2000/svg">
<path d="M7.625 9.37504V6.33337C7.625 6.15601 7.56514 6.00754 7.44542 5.88796C7.32583 5.76823 7.17736 5.70837 7 5.70837C6.82264 5.70837 6.67417 5.76823 6.55458 5.88796C6.43486 6.00754 6.375 6.15601 6.375 6.33337V9.37504L5.2725 8.30129C5.15167 8.18587 5.00743 8.12685 4.83979 8.12421C4.67201 8.12157 4.52347 8.1849 4.39417 8.31421C4.27347 8.4349 4.21313 8.58122 4.21313 8.75317C4.21313 8.92525 4.27347 9.07164 4.39417 9.19233L6.47271 11.2709C6.6234 11.4214 6.79917 11.4967 7 11.4967C7.20083 11.4967 7.3766 11.4214 7.52729 11.2709L9.60583 9.19233C9.72111 9.07692 9.78222 8.934 9.78917 8.76358C9.79611 8.59317 9.735 8.44337 9.60583 8.31421C9.49042 8.19879 9.3475 8.13893 9.17708 8.13462C9.00667 8.13032 8.85681 8.18587 8.7275 8.30129L7.625 9.37504ZM2.25646 15.9167C1.83549 15.9167 1.47917 15.7709 1.1875 15.4792C0.895833 15.1875 0.75 14.8312 0.75 14.4102V5.4665C0.75 5.26553 0.789028 5.0724 0.867083 4.88712C0.945 4.70171 1.05236 4.54067 1.18917 4.404L5.07063 0.522541C5.20729 0.385735 5.36833 0.278374 5.55375 0.200457C5.73903 0.122402 5.93215 0.083374 6.13313 0.083374H11.7435C12.1645 0.083374 12.5208 0.229207 12.8125 0.520874C13.1042 0.812541 13.25 1.16886 13.25 1.58983V14.4102C13.25 14.8312 13.1042 15.1875 12.8125 15.4792C12.5208 15.7709 12.1645 15.9167 11.7435 15.9167H2.25646ZM2.25646 14.6667H11.7435C11.8077 14.6667 11.8665 14.64 11.9198 14.5865C11.9733 14.5332 12 14.4744 12 14.4102V1.58983C12 1.52567 11.9733 1.46692 11.9198 1.41358C11.8665 1.36011 11.8077 1.33337 11.7435 1.33337H6.04167L2 5.37504V14.4102C2 14.4744 2.02674 14.5332 2.08021 14.5865C2.13354 14.64 2.19229 14.6667 2.25646 14.6667ZM2.25646 14.6667H2H12H2.25646Z" fill="white"/>
</svg>
