<svg width="36" height="36" viewBox="0 0 36 36" fill="none" xmlns="http://www.w3.org/2000/svg">
<mask id="mask0_26_35" style="mask-type:alpha" maskUnits="userSpaceOnUse" x="0" y="0" width="36" height="36">
<rect width="36" height="36" fill="#D9D9D9"/>
</mask>
<g mask="url(#mask0_26_35)">
<path d="M5.25 31.8461C5.0375 31.8461 4.85938 31.7741 4.71562 31.6301C4.57187 31.4864 4.5 31.308 4.5 31.095C4.5 30.8823 4.57187 30.7043 4.71562 30.561C4.85938 30.4178 5.0375 30.3461 5.25 30.3461H30.75C30.9625 30.3461 31.1406 30.4181 31.2844 30.5621C31.4281 30.7061 31.5 30.8845 31.5 31.0973C31.5 31.31 31.4281 31.488 31.2844 31.6312C31.1406 31.7745 30.9625 31.8461 30.75 31.8461H5.25ZM8.71163 28.5C8.36838 28.5 8.08063 28.3839 7.84837 28.1516C7.61612 27.9194 7.5 27.6316 7.5 27.2884V21.4616C6.6365 19.7461 5.98463 18.0938 5.54438 16.5045C5.10388 14.915 4.88362 13.4096 4.88362 11.9884C4.88362 10.8096 5.03413 9.58375 5.33513 8.31075C5.63613 7.0375 6.09712 5.56337 6.71812 3.88838C6.80287 3.63263 6.94525 3.42062 7.14525 3.25237C7.34525 3.08412 7.58563 3 7.86637 3C8.19913 3 8.477 3.13275 8.7 3.39825C8.923 3.6635 9.01337 3.96637 8.97112 4.30687L8.5875 7.40175C8.4375 8.71725 8.59662 10.0086 9.06487 11.2759C9.53312 12.5431 10.2115 13.6744 11.1 14.6696C11.9885 15.6649 13.0317 16.4688 14.2297 17.0812C15.4277 17.6937 16.6845 18 18 18C19.5577 18 20.9726 18.1081 22.2446 18.3244C23.5169 18.5409 24.6001 18.8596 25.4944 19.2806C26.4461 19.7404 27.185 20.3323 27.711 21.0563C28.237 21.7803 28.5 22.6865 28.5 23.775V27.2884C28.5 27.6316 28.3839 27.9194 28.1516 28.1516C27.9194 28.3839 27.6316 28.5 27.2884 28.5H8.71163ZM9 27H27V23.775C27 23.0788 26.8211 22.4706 26.4634 21.9506C26.1056 21.4304 25.5749 21.0039 24.8711 20.6711C24.0576 20.2866 23.0625 19.9953 21.8857 19.797C20.7087 19.599 19.4135 19.5 18 19.5C16.4655 19.5 15.0015 19.1432 13.608 18.4298C12.2148 17.7163 11.0052 16.7811 9.9795 15.6244C8.9535 14.4676 8.176 13.1551 7.647 11.6869C7.11825 10.2186 6.94425 8.723 7.125 7.2C6.875 7.95 6.69375 8.73075 6.58125 9.54225C6.46875 10.3538 6.4125 11.1691 6.4125 11.9884C6.4125 13.2654 6.63512 14.6399 7.08037 16.1119C7.52562 17.5841 8.1655 19.227 9 21.0405V27ZM18 15.8077C16.7625 15.8077 15.7031 15.3671 14.8219 14.4859C13.9406 13.6046 13.5 12.5452 13.5 11.3077C13.5 10.0702 13.9406 9.01087 14.8219 8.12962C15.7031 7.24837 16.7625 6.80775 18 6.80775C19.2375 6.80775 20.2969 7.24837 21.1781 8.12962C22.0594 9.01087 22.5 10.0702 22.5 11.3077C22.5 12.5452 22.0594 13.6046 21.1781 14.4859C20.2969 15.3671 19.2375 15.8077 18 15.8077ZM18 14.3077C18.825 14.3077 19.5313 14.014 20.1188 13.4265C20.7063 12.839 21 12.1327 21 11.3077C21 10.4827 20.7063 9.7765 20.1188 9.189C19.5313 8.6015 18.825 8.30775 18 8.30775C17.175 8.30775 16.4688 8.6015 15.8813 9.189C15.2937 9.7765 15 10.4827 15 11.3077C15 12.1327 15.2937 12.839 15.8813 13.4265C16.4688 14.014 17.175 14.3077 18 14.3077ZM12.8078 28.5V27.8914C12.8078 26.4856 13.3025 25.2933 14.292 24.3143C15.2812 23.3355 16.4788 22.8461 17.8845 22.8461H22.2116C22.4241 22.8461 22.6023 22.9181 22.746 23.0621C22.8898 23.2061 22.9616 23.3845 22.9616 23.5973C22.9616 23.81 22.8898 23.988 22.746 24.1313C22.6023 24.2745 22.4241 24.3461 22.2116 24.3461H17.8845C16.871 24.3461 16.0215 24.6909 15.336 25.3804C14.6505 26.0696 14.3078 26.9066 14.3078 27.8914V28.5H12.8078Z" fill="#FC8D19"/>
</g>
</svg>
