<svg width="22" height="25" viewBox="0 0 22 25" fill="none" xmlns="http://www.w3.org/2000/svg">
<path d="M4.00001 19.3101C2.76501 18.1834 1.80626 16.9171 1.12376 15.5111C0.441256 14.1054 0.100006 12.6623 0.100006 11.1818C0.100006 8.29797 1.11108 5.84671 3.13323 3.82802C5.1556 1.80934 7.61119 0.799999 10.5 0.799999C12.8417 0.799999 14.958 1.51294 16.8489 2.93882C18.7397 4.36471 19.966 6.20594 20.5276 8.46252L21.8753 13.798C21.9618 14.1276 21.9 14.427 21.6901 14.6963C21.4801 14.9654 21.2001 15.1 20.85 15.1H18.3V19.4998C18.3 20.0775 18.0944 20.5719 17.6832 20.9831C17.2719 21.3944 16.7775 21.6 16.1999 21.6H13.1V23.55C13.1 23.7342 13.0376 23.8885 12.9128 24.0131C12.788 24.1377 12.6334 24.2 12.449 24.2C12.2646 24.2 12.1104 24.1377 11.9862 24.0131C11.8621 23.8885 11.8 23.7342 11.8 23.55V21.3624C11.8 21.0524 11.9006 20.7978 12.1019 20.5987C12.3032 20.3996 12.5526 20.3 12.8501 20.3H16.1999C16.4332 20.3 16.625 20.225 16.7751 20.0751C16.925 19.9249 17 19.7332 17 19.4998V14.8501C17 14.5526 17.1006 14.3032 17.3019 14.1019C17.5032 13.9006 17.7526 13.8 18.0501 13.8H20.51L19.275 8.7625C18.7767 6.77415 17.7067 5.1667 16.065 3.94015C14.4233 2.71338 12.5683 2.1 10.5 2.1C7.98667 2.1 5.84167 2.97988 4.06501 4.73965C2.28834 6.49963 1.40001 8.63976 1.40001 11.16C1.40001 12.4557 1.66542 13.6866 2.19626 14.8527C2.72709 16.019 3.48001 17.0556 4.45501 17.9626L5.30001 18.74V23.55C5.30001 23.7342 5.23761 23.8885 5.11281 24.0131C4.98801 24.1377 4.83342 24.2 4.64903 24.2C4.46465 24.2 4.31038 24.1377 4.18623 24.0131C4.06208 23.8885 4.00001 23.7342 4.00001 23.55V19.3101ZM10.2491 17.4501C10.518 17.4501 10.7438 17.3591 10.9264 17.1771C11.1088 16.9953 11.2001 16.7698 11.2001 16.5007C11.2001 16.2319 11.1091 16.0062 10.9271 15.8238C10.7453 15.6413 10.5198 15.5501 10.2507 15.5501C9.98185 15.5501 9.75619 15.641 9.57376 15.8228C9.39132 16.0048 9.30011 16.2302 9.30011 16.4991C9.30011 16.768 9.391 16.9937 9.57278 17.1761C9.75478 17.3587 9.98022 17.4501 10.2491 17.4501ZM10.345 6.95257C10.9399 6.95257 11.432 7.11973 11.8211 7.45405C12.2105 7.78858 12.4052 8.22062 12.4052 8.75015C12.4052 9.09075 12.3131 9.41543 12.1289 9.72418C11.9447 10.0331 11.5651 10.4859 10.9901 11.0823C10.6283 11.4658 10.347 11.838 10.1464 12.1987C9.94556 12.5595 9.81263 12.9316 9.74763 13.3151C9.72098 13.4583 9.76171 13.5899 9.86983 13.71C9.97795 13.83 10.1147 13.89 10.28 13.89C10.4199 13.89 10.547 13.8421 10.6612 13.7464C10.7754 13.6504 10.8566 13.52 10.905 13.3551C10.97 13.0784 11.0896 12.7988 11.2638 12.5162C11.438 12.2337 11.6851 11.9133 12.0051 11.5549C12.615 10.88 13.0283 10.3516 13.245 9.96987C13.4616 9.58832 13.57 9.18175 13.57 8.75015C13.57 7.92335 13.2679 7.23327 12.6639 6.6799C12.0596 6.12653 11.2875 5.84985 10.3476 5.84985C9.7381 5.84985 9.16198 5.99285 8.61923 6.27885C8.07648 6.56463 7.63762 6.96666 7.30266 7.48492C7.22249 7.61839 7.21285 7.75424 7.27373 7.89247C7.33462 8.03092 7.43417 8.12929 7.57241 8.18757C7.71086 8.24586 7.84801 8.25788 7.98386 8.22365C8.11971 8.18963 8.24093 8.1034 8.34753 7.96495C8.59756 7.63822 8.8983 7.38786 9.24973 7.21387C9.60138 7.03967 9.96646 6.95257 10.345 6.95257Z" fill="#754BF3"/>
</svg>
