<svg width="32" height="32" viewBox="0 0 32 32" fill="none" xmlns="http://www.w3.org/2000/svg">
<circle cx="16" cy="16" r="16" fill="#FC8D19"/>
<mask id="mask0_428_343" style="mask-type:alpha" maskUnits="userSpaceOnUse" x="5" y="4" width="24" height="24">
<rect x="5" y="4" width="24" height="24" fill="#D9D9D9"/>
</mask>
<g mask="url(#mask0_428_343)">
<path d="M17.5998 16L13.6998 12.1C13.5165 11.9167 13.4248 11.6833 13.4248 11.4C13.4248 11.1167 13.5165 10.8833 13.6998 10.7C13.8831 10.5167 14.1165 10.425 14.3998 10.425C14.6831 10.425 14.9165 10.5167 15.0998 10.7L19.6998 15.3C19.7998 15.4 19.8706 15.5083 19.9123 15.625C19.954 15.7417 19.9748 15.8667 19.9748 16C19.9748 16.1333 19.954 16.2583 19.9123 16.375C19.8706 16.4917 19.7998 16.6 19.6998 16.7L15.0998 21.3C14.9165 21.4833 14.6831 21.575 14.3998 21.575C14.1165 21.575 13.8831 21.4833 13.6998 21.3C13.5165 21.1167 13.4248 20.8833 13.4248 20.6C13.4248 20.3167 13.5165 20.0833 13.6998 19.9L17.5998 16Z" fill="white"/>
</g>
</svg>
