<svg width="60" height="60" viewBox="0 0 60 60" fill="none" xmlns="http://www.w3.org/2000/svg">
<rect width="60" height="60" rx="30" fill="black"/>
<path d="M43.0325 30.5075C43.5671 30.5075 44.0011 30.9331 44.0011 31.4585C44.0011 31.9827 43.5671 32.4071 43.0325 32.4071H41.6808V36.9376C41.6808 39.6809 39.4064 41.91 36.6114 41.91H34.5838C34.048 41.91 33.614 41.4844 33.614 40.959C33.614 40.4348 34.048 40.0092 34.5838 40.0092H36.6114C38.3385 40.0092 39.7437 38.6325 39.7437 36.9376V32.4071H36.4052V33.6689C36.4179 35.2477 35.126 36.5382 33.516 36.5532H26.4851C24.8764 36.5382 23.5845 35.2477 23.5972 33.6689V32.4071H20.2587V36.9426C20.2587 38.6313 21.66 40.0054 23.3821 40.0079L25.4542 40.0092C25.9888 40.0092 26.4228 40.4348 26.4228 40.959C26.4215 41.4844 25.9888 41.91 25.4529 41.91L23.3796 41.9088C20.5909 41.9063 18.3203 39.6784 18.3203 36.9426V32.4071H16.9699C16.4353 32.4071 16 31.9827 16 31.4585C16 30.9331 16.4353 30.5075 16.9699 30.5075H43.0325ZM33.5166 23.7636C34.2866 23.7636 35.0261 24.0669 35.5645 24.6073C36.1067 25.1527 36.4071 25.8853 36.4058 26.6479V28.233C36.3994 28.4189 36.248 28.57 36.0583 28.5749H23.9415C23.7531 28.5687 23.6017 28.4177 23.5977 28.233V26.6479C23.5838 25.0691 24.877 23.7798 26.4858 23.7636H33.5166ZM36.6109 19.0004C39.4071 19.0004 41.6803 21.2295 41.6803 23.9715V26.3341C41.6803 26.8583 41.2476 27.2852 40.7117 27.2852C40.1772 27.2852 39.7432 26.8583 39.7432 26.3341V23.9715C39.7432 22.2778 38.338 20.9 36.6109 20.9H34.5833C34.0488 20.9 33.6147 20.4756 33.6147 19.9514C33.6147 19.426 34.0488 19.0004 34.5833 19.0004H36.6109ZM25.4538 19C25.9884 19 26.4224 19.4256 26.4224 19.951C26.4224 20.4752 25.9897 20.9008 25.4538 20.9008L23.3805 20.9021C21.6597 20.9046 20.2596 22.2787 20.2596 23.9674V26.3338C20.2596 26.858 19.8243 27.2848 19.2897 27.2848C18.7552 27.2848 18.3212 26.858 18.3212 26.3338V23.9674C18.3212 21.2316 20.5905 19.0037 23.3792 19.0012L25.4538 19Z" fill="white"/>
</svg>
