<svg width="18" height="16" viewBox="0 0 18 16" fill="none" xmlns="http://www.w3.org/2000/svg">
<path d="M10.3701 14.65H16.0153C16.1858 14.65 16.3259 14.5952 16.4356 14.4857C16.5452 14.3759 16.6 14.2358 16.6 14.0653V1.93473C16.6 1.76421 16.5452 1.62408 16.4356 1.51436C16.3259 1.40479 16.1858 1.35001 16.0153 1.35001H10.3701V14.65ZM3.88471 15.6C3.46259 15.6 3.10127 15.4498 2.80076 15.1492C2.50024 14.8487 2.34998 14.4874 2.34998 14.0653V13.1153C2.34998 12.9807 2.39558 12.8679 2.48678 12.7768C2.57798 12.6858 2.69095 12.6403 2.82569 12.6403C2.96044 12.6403 3.07317 12.6858 3.16389 12.7768C3.25462 12.8679 3.29998 12.9807 3.29998 13.1153V14.0653C3.29998 14.2358 3.35476 14.3759 3.46433 14.4857C3.57406 14.5952 3.71418 14.65 3.88471 14.65H9.42012V1.35001H3.88471C3.71418 1.35001 3.57406 1.40479 3.46433 1.51436C3.35476 1.62408 3.29998 1.76421 3.29998 1.93473V2.88473C3.29998 3.01932 3.25438 3.13213 3.16318 3.22317C3.07198 3.31421 2.95901 3.35973 2.82427 3.35973C2.68953 3.35973 2.57679 3.31421 2.48607 3.22317C2.39534 3.13213 2.34998 3.01932 2.34998 2.88473V1.93473C2.34998 1.51262 2.50024 1.1513 2.80076 0.850784C3.10127 0.550267 3.46259 0.400009 3.88471 0.400009H16.0153C16.4374 0.400009 16.7987 0.550267 17.0992 0.850784C17.3997 1.1513 17.55 1.51262 17.55 1.93473V14.0653C17.55 14.4874 17.3997 14.8487 17.0992 15.1492C16.7987 15.4498 16.4374 15.6 16.0153 15.6H3.88471ZM2.82427 10.375C2.68953 10.375 2.57679 10.3295 2.48607 10.2384C2.39534 10.1474 2.34998 10.0346 2.34998 9.90001V8.47501H0.924982C0.790398 8.47501 0.677586 8.42941 0.586544 8.33821C0.495503 8.24701 0.449982 8.13404 0.449982 7.9993C0.449982 7.86455 0.495503 7.75182 0.586544 7.6611C0.677586 7.57037 0.790398 7.52501 0.924982 7.52501H2.34998V6.10001C2.34998 5.96543 2.39558 5.85261 2.48678 5.76157C2.57798 5.67053 2.69095 5.62501 2.82569 5.62501C2.96044 5.62501 3.07317 5.67053 3.16389 5.76157C3.25462 5.85261 3.29998 5.96543 3.29998 6.10001V7.52501H4.72498C4.85956 7.52501 4.97238 7.57061 5.06342 7.66181C5.15446 7.75301 5.19998 7.86598 5.19998 8.00072C5.19998 8.13546 5.15446 8.2482 5.06342 8.33892C4.97238 8.42965 4.85956 8.47501 4.72498 8.47501H3.29998V9.90001C3.29998 10.0346 3.25438 10.1474 3.16318 10.2384C3.07198 10.3295 2.95901 10.375 2.82427 10.375Z" fill="white"/>
</svg>
