<svg width="40" height="40" viewBox="0 0 40 40" fill="none" xmlns="http://www.w3.org/2000/svg">
<rect width="40" height="40" rx="20" fill="white" fill-opacity="0.1"/>
<g clip-path="url(#clip0_19_62)">
<path d="M20 24.5C22.4853 24.5 24.5 22.4853 24.5 20C24.5 17.5147 22.4853 15.5 20 15.5C17.5147 15.5 15.5 17.5147 15.5 20C15.5 22.4853 17.5147 24.5 20 24.5Z" stroke="white" stroke-width="1.5" stroke-linecap="round" stroke-linejoin="round"/>
<path d="M25.2219 14.1031C25.4594 14.3219 25.6844 14.5469 25.8969 14.7781L28.4563 15.1437C28.8733 15.868 29.1947 16.6432 29.4125 17.45L27.8563 19.5219C27.8563 19.5219 27.8844 20.1594 27.8563 20.4781L29.4125 22.55C29.1957 23.3572 28.8742 24.1325 28.4563 24.8562L25.8969 25.2219C25.8969 25.2219 25.4563 25.6812 25.2219 25.8969L24.8563 28.4562C24.132 28.8733 23.3568 29.1947 22.55 29.4125L20.4782 27.8562C20.16 27.8844 19.84 27.8844 19.5219 27.8562L17.45 29.4125C16.6429 29.1957 15.8675 28.8742 15.1438 28.4562L14.7781 25.8969C14.5469 25.6781 14.3219 25.4531 14.1031 25.2219L11.5438 24.8562C11.1268 24.132 10.8053 23.3568 10.5875 22.55L12.1438 20.4781C12.1438 20.4781 12.1156 19.8406 12.1438 19.5219L10.5875 17.45C10.8043 16.6428 11.1258 15.8675 11.5438 15.1437L14.1031 14.7781C14.3219 14.5469 14.5469 14.3219 14.7781 14.1031L15.1438 11.5437C15.868 11.1267 16.6432 10.8053 17.45 10.5875L19.5219 12.1437C19.84 12.1156 20.16 12.1156 20.4782 12.1437L22.55 10.5875C23.3572 10.8043 24.1325 11.1258 24.8563 11.5437L25.2219 14.1031Z" stroke="white" stroke-width="1.5" stroke-linecap="round" stroke-linejoin="round"/>
</g>
<defs>
<clipPath id="clip0_19_62">
<rect width="24" height="24" fill="white" transform="translate(8 8)"/>
</clipPath>
</defs>
</svg>
