<svg width="24" height="24" viewBox="0 0 24 24" fill="none" xmlns="http://www.w3.org/2000/svg">
<mask id="mask0_428_417" style="mask-type:alpha" maskUnits="userSpaceOnUse" x="0" y="0" width="24" height="24">
<rect width="24" height="24" fill="#D9D9D9"/>
</mask>
<g mask="url(#mask0_428_417)">
<path d="M12.1866 16.9213L20.4944 8.6135C20.5392 8.56867 20.5616 8.51417 20.5616 8.45C20.5616 8.38584 20.5392 8.33134 20.4944 8.2865L19.5214 7.3135C19.4764 7.26867 19.4219 7.24625 19.3579 7.24625C19.2937 7.24625 19.2392 7.26867 19.1944 7.3135L10.8866 15.6213L12.1866 16.9213ZM2.94238 15.2845C2.94238 15.8257 3.1283 16.2488 3.50013 16.5538C3.87197 16.8589 4.46688 17.0628 5.28488 17.1655C5.48738 17.1923 5.65013 17.2843 5.77313 17.4413C5.8963 17.5984 5.95272 17.7783 5.94238 17.9808C5.93222 18.1936 5.8563 18.3693 5.71463 18.5078C5.57297 18.6461 5.40405 18.7018 5.20788 18.675C3.96038 18.5212 3.02097 18.1609 2.38963 17.5943C1.75813 17.0276 1.44238 16.2577 1.44238 15.2845C1.44238 14.2718 1.86738 13.4504 2.71738 12.8203C3.56738 12.1901 4.7488 11.8083 6.26163 11.675C6.98863 11.6122 7.53388 11.4808 7.89738 11.2808C8.26072 11.0808 8.44238 10.8038 8.44238 10.45C8.44238 10.0128 8.25297 9.66925 7.87413 9.41925C7.4953 9.16925 6.87388 8.9795 6.00988 8.85C5.80722 8.823 5.64113 8.73008 5.51163 8.57125C5.38213 8.41225 5.33088 8.23142 5.35788 8.02875C5.38472 7.81609 5.4773 7.64309 5.63563 7.50975C5.79397 7.37642 5.97763 7.32642 6.18663 7.35975C7.46097 7.55325 8.40555 7.90325 9.02038 8.40975C9.63505 8.91609 9.94238 9.59617 9.94238 10.45C9.94238 11.2435 9.63763 11.8727 9.02813 12.3375C8.41847 12.8022 7.53347 13.0813 6.37313 13.175C5.22963 13.2712 4.37197 13.4943 3.80013 13.8443C3.2283 14.1943 2.94238 14.6743 2.94238 15.2845ZM12.4211 18.8095L8.99813 15.3865L18.3366 6.05775C18.6315 5.76292 18.976 5.61708 19.3704 5.62025C19.7645 5.62342 20.109 5.76925 20.4039 6.05775L21.7501 7.40375C22.045 7.69875 22.1924 8.04492 22.1924 8.44225C22.1924 8.83975 22.045 9.18592 21.7501 9.48075L12.4211 18.8095ZM9.08088 19.5C8.85522 19.5538 8.65655 19.4948 8.48488 19.323C8.31305 19.1512 8.25405 18.9525 8.30788 18.727L8.99813 15.3865L12.4211 18.8095L9.08088 19.5Z" fill="#808080"/>
</g>
</svg>
