<svg width="34" height="34" viewBox="0 0 34 34" fill="none" xmlns="http://www.w3.org/2000/svg">
<mask id="mask0_438_285" style="mask-type:alpha" maskUnits="userSpaceOnUse" x="0" y="0" width="34" height="34">
<rect width="34" height="34" fill="#D9D9D9"/>
</mask>
<g mask="url(#mask0_438_285)">
<path d="M17.8501 17L12.3251 11.475C12.0654 11.2153 11.9355 10.8847 11.9355 10.4833C11.9355 10.0819 12.0654 9.75139 12.3251 9.49166C12.5849 9.23194 12.9154 9.10208 13.3168 9.10208C13.7182 9.10208 14.0487 9.23194 14.3085 9.49166L20.8251 16.0083C20.9668 16.15 21.0671 16.3035 21.1262 16.4687C21.1852 16.634 21.2147 16.8111 21.2147 17C21.2147 17.1889 21.1852 17.366 21.1262 17.5312C21.0671 17.6965 20.9668 17.85 20.8251 17.9917L14.3085 24.5083C14.0487 24.7681 13.7182 24.8979 13.3168 24.8979C12.9154 24.8979 12.5849 24.7681 12.3251 24.5083C12.0654 24.2486 11.9355 23.9181 11.9355 23.5167C11.9355 23.1153 12.0654 22.7847 12.3251 22.525L17.8501 17Z" fill="#FC8D19"/>
</g>
</svg>
